<?xml version="1.0" encoding="UTF-8"?>
<svg version="1.1" xmlns="http://www.w3.org/2000/svg" width="287" height="175">
<path d="M0 0 C94.71 0 189.42 0 287 0 C287 57.75 287 115.5 287 175 C192.29 175 97.58 175 0 175 C0 117.25 0 59.5 0 0 Z " fill="#FEFEFE" transform="translate(0,0)"/>
<path d="M0 0 C1.08410156 0.35191406 2.16820313 0.70382813 3.28515625 1.06640625 C18.08859512 6.31253722 28.56836426 15.46127491 39.4375 26.5 C50.93097365 38.05822561 61.81655157 47.18960231 78.5625 47.3125 C92.53373292 47.32367401 100.68860374 42.97906006 110.75 33.375 C111.4925 32.59125 112.235 31.8075 113 31 C114.66666667 29.33333333 116.33333333 27.66666667 118 26 C116.84592707 32.25999908 115.07720456 37.77146357 112.3125 43.5 C111.95728271 44.24121094 111.60206543 44.98242188 111.23608398 45.74609375 C108.43827304 51.42277547 105.31142932 56.33849736 101 61 C100.33484375 61.75539063 99.6696875 62.51078125 98.984375 63.2890625 C90.41224934 72.50872283 80.06869475 77.76760396 68 81 C67.17628906 81.22558594 66.35257813 81.45117188 65.50390625 81.68359375 C44.02275621 86.54282426 20.65950097 82.55734705 1.97265625 71.15234375 C-6.39539821 65.30551086 -13.9586154 58.2149876 -21.0390625 50.875 C-31.87816577 39.63917366 -42.36964537 32.17263162 -58.5 31.5625 C-73.87624249 31.98152083 -85.69708652 41.39405965 -96 52 C-93.87252535 36.65502326 -84.56155326 20.98438983 -72.7265625 11.1015625 C-52.70182518 -3.73877681 -23.72352956 -7.84483248 0 0 Z " fill="#38BDF8" transform="translate(97,89)"/>
<path d="M0 0 C5.34840123 4.52285645 10.38804166 9.31440231 15.2578125 14.34765625 C21.65216331 20.94806301 27.73203956 26.73142508 36 31 C36.67675781 31.35707031 37.35351562 31.71414062 38.05078125 32.08203125 C47.03017691 35.90045387 59.92251633 35.42829861 69.0625 32.4375 C77.86085241 28.6033556 84.46855719 21.85178606 91 15 C92 17 92 17 91.21484375 19.87109375 C86.73277762 32.38524168 81.51576117 42.46791677 72 52 C71.36191406 52.6496875 70.72382813 53.299375 70.06640625 53.96875 C55.02055589 68.23259151 33.03597643 70.56174315 13.26611328 70.08447266 C-10.92943529 69.18254852 -28.71550085 55.55683455 -44.96240234 38.94555664 C-55.3436277 28.35853606 -66.62544243 19.02760402 -82.125 18.75 C-97.95066397 18.96242502 -109.16383097 27.19239121 -120 37.9375 C-120.99 38.9584375 -120.99 38.9584375 -122 40 C-118.47441819 22.66588946 -109.04845627 6.53666647 -94.84765625 -4.15234375 C-66.73778745 -22.3909829 -26.44511195 -20.40948614 0 0 Z " fill="#38BDF8" transform="translate(194,16)"/>
</svg>
