<?xml version="1.0" encoding="UTF-8"?>
<svg version="1.1" xmlns="http://www.w3.org/2000/svg" width="200" height="200">
<path d="M0 0 C66 0 132 0 200 0 C200 66 200 132 200 200 C134 200 68 200 0 200 C0 134 0 68 0 0 Z " fill="#FDFDFD" transform="translate(0,0)"/>
<path d="M0 0 C0.99 0 1.98 0 3 0 C0.74603165 8.814299 -2.0624369 17.39630728 -5 26 C-3.93136719 25.49339844 -2.86273438 24.98679687 -1.76171875 24.46484375 C1.19975504 23.19393692 2.99868315 22.72749023 6.1875 23.5625 C10.01817325 24.45189083 10.01817325 24.45189083 12.5 22.0625 C13.2425 21.0415625 13.2425 21.0415625 14 20 C13.67 22.31 13.34 24.62 13 27 C13.763125 26.236875 14.52625 25.47375 15.3125 24.6875 C17.20833333 22.79166667 19.10416667 20.89583333 21 19 C21.33 19.66 21.66 20.32 22 21 C21.0625 23.125 21.0625 23.125 20 25 C23.77817141 22.64913779 26.42254901 20.60843139 29 17 C29.66 17 30.32 17 31 17 C31 19.31 31 21.62 31 24 C31.99 23.67 32.98 23.34 34 23 C34.71706982 21.01751285 35.38290413 19.01584651 36 17 C36.66 16.34 37.32 15.68 38 15 C40.125 15.375 40.125 15.375 42 16 C41.49396008 18.16874252 41.00016187 19.99967627 40 22 C42.64 21.67 45.28 21.34 48 21 C48 21.66 48 22.32 48 23 C48.99 23 49.98 23 51 23 C51.06946925 34.79580568 51.1227957 46.5915628 51.15543652 58.38753128 C51.17110141 63.86471017 51.19235486 69.34174924 51.22631836 74.81884766 C51.25888221 80.10322191 51.27684681 85.38746157 51.28463173 90.67192841 C51.29018057 92.68939076 51.30101593 94.70684564 51.31719017 96.72425079 C51.33892478 99.54712422 51.34196857 102.36943936 51.34057617 105.19238281 C51.351362 106.02891891 51.36214783 106.86545502 51.3732605 107.7273407 C51.35528011 111.0896733 51.2603699 113.53183579 49.60762024 116.50360107 C48 118 48 118 45.9375 118.75 C43.46904861 120.34254928 43.44169744 121.32877629 42.75 124.125 C42.37875 126.043125 42.37875 126.043125 42 128 C41.01 128 40.02 128 39 128 C37.63823419 126.01924973 36.30406884 124.01920337 35 122 C34.34 122 33.68 122 33 122 C32.67 123.98 32.34 125.96 32 128 C22.98468271 128.63019694 22.98468271 128.63019694 18.875 126 C18.25625 125.34 17.6375 124.68 17 124 C14.08482708 125.07401108 12.22189824 125.77810176 10 128 C8.125 128.23046875 8.125 128.23046875 6 128.1875 C4.948125 128.17783203 4.948125 128.17783203 3.875 128.16796875 C2 128 2 128 0 127 C0 127.66 0 128.32 0 129 C-0.66 129 -1.32 129 -2 129 C-2.33 129.66 -2.66 130.32 -3 131 C-6.3 131 -9.6 131 -13 131 C-13.71614583 128.94921875 -14.43229167 126.8984375 -15.1484375 124.84765625 C-15.85271413 122.81317884 -15.85271413 122.81317884 -18 122 C-18.33 123.65 -18.66 125.3 -19 127 C-22.15506142 127.93619813 -24.96586502 128.1057123 -28.25 128.0625 C-29.14203125 128.05347656 -30.0340625 128.04445312 -30.953125 128.03515625 C-31.96632812 128.01775391 -31.96632812 128.01775391 -33 128 C-33.33 128.66 -33.66 129.32 -34 130 C-35.65 129.34 -37.3 128.68 -39 128 C-39.33 128.99 -39.66 129.98 -40 131 C-40.99 130.67 -41.98 130.34 -43 130 C-43.061875 128.948125 -43.12375 127.89625 -43.1875 126.8125 C-44.13408616 122.3708265 -45.59156258 120.88406243 -49 118 C-49.33 121.63 -49.66 125.26 -50 129 C-50.99 129.33 -51.98 129.66 -53 130 C-54.87824891 128.12175109 -54.39102397 124.96064724 -54.5625 122.4375 C-54.64628906 121.23996094 -54.73007813 120.04242188 -54.81640625 118.80859375 C-54.87699219 117.88175781 -54.93757813 116.95492187 -55 116 C-56.56305491 117.56305491 -56.30639968 119.27678218 -56.5 121.4375 C-56.89041096 125.78082192 -56.89041096 125.78082192 -58 128 C-58.99 128 -59.98 128 -61 128 C-61 125.69 -61 123.38 -61 121 C-63.31 121 -65.62 121 -68 121 C-68 123.31 -68 125.62 -68 128 C-68.99 128 -69.98 128 -71 128 C-71.05383848 125.54137599 -71.09359038 123.0839245 -71.125 120.625 C-71.14175781 119.92632812 -71.15851563 119.22765625 -71.17578125 118.5078125 C-71.19344267 116.67102514 -71.10303261 114.83398037 -71 113 C-70.34 112.34 -69.68 111.68 -69 111 C-69 109.68 -69 108.36 -69 107 C-68.34 107 -67.68 107 -67 107 C-67 106.34 -67 105.68 -67 105 C-68.47906892 104.97310784 -69.95827483 104.95365379 -71.4375 104.9375 C-72.26121094 104.92589844 -73.08492188 104.91429687 -73.93359375 104.90234375 C-75.99163938 104.76732652 -75.99163938 104.76732652 -77 106 C-78.84891946 106.23363881 -80.70488031 106.41303635 -82.5625 106.5625 C-83.57441406 106.64628906 -84.58632812 106.73007813 -85.62890625 106.81640625 C-86.41136719 106.87699219 -87.19382813 106.93757813 -88 107 C-87.01 107.495 -87.01 107.495 -86 108 C-86.495 109.98 -86.495 109.98 -87 112 C-83.04 112.33 -79.08 112.66 -75 113 C-75 113.66 -75 114.32 -75 115 C-74.01 114.67 -73.02 114.34 -72 114 C-72 118.29 -72 122.58 -72 127 C-72.66 126.67 -73.32 126.34 -74 126 C-74.33 126.66 -74.66 127.32 -75 128 C-77.43359375 128.37890625 -77.43359375 128.37890625 -80.4375 128.5625 C-84.36535217 128.73109366 -84.36535217 128.73109366 -88 130 C-88.33 129.01 -88.66 128.02 -89 127 C-89.33 127.33 -89.66 127.66 -90 128 C-92.01964199 128.07244053 -94.04167124 128.08377188 -96.0625 128.0625 C-97.16722656 128.05347656 -98.27195313 128.04445312 -99.41015625 128.03515625 C-100.69212891 128.01775391 -100.69212891 128.01775391 -102 128 C-102.02697137 125.39576408 -102.04682489 122.79180756 -102.0625 120.1875 C-102.07087891 119.44951172 -102.07925781 118.71152344 -102.08789062 117.95117188 C-102.10259828 114.70077932 -102.03531702 112.10595105 -101 109 C-101.07045298 106.42890906 -101.07045298 106.42890906 -102 104 C-103.85591523 102.60632368 -103.85591523 102.60632368 -106.1875 101.6875 C-112.29101084 98.59686872 -115.3621365 94.27572701 -118.375 88.25 C-120.08028444 79.38252093 -119.52974002 72.78549066 -115 65 C-115 64.01 -115 63.02 -115 62 C-115.66 62 -116.32 62 -117 62 C-118.04115841 63.30144802 -119.03886134 64.63838689 -120 66 C-122.13414229 68.13414229 -124.05022074 68.89064264 -126.80859375 70.0078125 C-129.47704573 71.21598862 -131.96095508 72.66513648 -134.5 74.125 C-138.81204125 76.52784782 -142.08403472 77.78151265 -147 78 C-147 77.34 -147 76.68 -147 76 C-145.96101562 75.59910156 -144.92203125 75.19820313 -143.8515625 74.78515625 C-134.53007517 71.04157357 -125.23808717 66.93383249 -119.765625 57.98046875 C-118.47340739 54.63784461 -118.43768141 51.51996835 -119 48 C-121.63273187 44.1081355 -126.16500729 41.79676288 -130.07421875 39.26953125 C-132 38 -132 38 -133 37 C-133.876926 28.81535732 -131.05423866 23.80294308 -125.9921875 17.5 C-123.14683692 14.22417203 -120.62338308 11.41558872 -117 9 C-115.68 9 -114.36 9 -113 9 C-113 9.66 -113 10.32 -113 11 C-113.845625 11.33 -114.69125 11.66 -115.5625 12 C-123.08682598 16.37778966 -128.6565262 24.07392941 -130.9375 32.4375 C-129.57015208 37.63342209 -126.20279846 39.1987449 -121.796875 42.0078125 C-118.2635739 44.52454932 -115.60581042 47.13208453 -114.25 51.3125 C-114.1675 51.869375 -114.085 52.42625 -114 53 C-113.38125 51.88625 -112.7625 50.7725 -112.125 49.625 C-110.86718769 47.36093785 -109.85384858 45.85384858 -108 44 C-106.88625 44.226875 -105.7725 44.45375 -104.625 44.6875 C-103.42875 44.790625 -102.2325 44.89375 -101 45 C-96.80548245 40.67465929 -94.4110277 35.27001828 -91.68359375 29.9609375 C-90.27896939 27.49062366 -89.24544836 25.70876153 -87 24 C-84.8125 24.3125 -84.8125 24.3125 -83 25 C-82.85177265 31.81845791 -86.20135974 34.97015582 -90.7734375 39.765625 C-92.07200374 41.06874761 -93.38100482 42.36191118 -94.71484375 43.62890625 C-96.48341785 45.51574366 -97.15135576 47.58462792 -98 50 C-93.2462315 48.77760238 -91.60043684 46.43066466 -89.11328125 42.4609375 C-88.74589844 41.97882813 -88.37851563 41.49671875 -88 41 C-87.34 41 -86.68 41 -86 41 C-86.33 42.65 -86.66 44.3 -87 46 C-83.57421051 42.82460444 -83.57421051 42.82460444 -81 39 C-80.34 39 -79.68 39 -79 39 C-79.33 40.98 -79.66 42.96 -80 45 C-79.03644756 43.92130607 -78.07938583 42.83681257 -77.125 41.75 C-76.59132813 41.14671875 -76.05765625 40.5434375 -75.5078125 39.921875 C-74.0202513 38.02581254 -72.99677564 36.18709995 -72 34 C-73.65 34 -75.3 34 -77 34 C-77 33.01 -77 32.02 -77 31 C-74.36 31 -71.72 31 -69 31 C-68.505 29.515 -68.505 29.515 -68 28 C-67.34 28 -66.68 28 -66 28 C-65.505 29.485 -65.505 29.485 -65 31 C-65.61875 31.598125 -66.2375 32.19625 -66.875 32.8125 C-70.39052333 36.43142107 -71.34411825 39.08088687 -72 44 C-67.99655973 41.10862647 -65.70032872 38.09705048 -63 34 C-62.34 34 -61.68 34 -61 34 C-61.99 36.97 -62.98 39.94 -64 43 C-63.2575 42.2575 -62.515 41.515 -61.75 40.75 C-60.8425 39.8425 -59.935 38.935 -59 38 C-58.38125 37.21625 -57.7625 36.4325 -57.125 35.625 C-56.42375 35.08875 -55.7225 34.5525 -55 34 C-53.2984375 34.2784375 -53.2984375 34.2784375 -51.5625 34.5625 C-50.386875 34.706875 -49.21125 34.85125 -48 35 C-45.16588845 32.666508 -45.16588845 32.666508 -43 30 C-42.34 30 -41.68 30 -41 30 C-41 31.65 -41 33.3 -41 35 C-40.236875 34.175 -39.47375 33.35 -38.6875 32.5 C-36 30 -36 30 -33 30 C-32.87625 30.969375 -32.7525 31.93875 -32.625 32.9375 C-32.315625 34.4534375 -32.315625 34.4534375 -32 36 C-31.34 36.33 -30.68 36.66 -30 37 C-30 36.01 -30 35.02 -30 34 C-29.01 34 -28.02 34 -27 34 C-26.34 32.68 -25.68 31.36 -25 30 C-23.02 30 -21.04 30 -19 30 C-18.74605469 29.07316406 -18.49210938 28.14632812 -18.23046875 27.19140625 C-17.88628906 25.99386719 -17.54210937 24.79632813 -17.1875 23.5625 C-16.85105469 22.36753906 -16.51460937 21.17257813 -16.16796875 19.94140625 C-15.78253906 18.97074219 -15.39710938 18.00007813 -15 17 C-14.01 16.67 -13.02 16.34 -12 16 C-12.47811177 17.77111844 -12.9575278 19.54188483 -13.4375 21.3125 C-13.70433594 22.29863281 -13.97117188 23.28476562 -14.24609375 24.30078125 C-14.78079425 26.21517526 -15.37144538 28.11433615 -16 30 C-12.85755587 29.36535706 -11.44117568 28.99002653 -9 27 C-6.76220066 22.62510613 -5.44337018 18.01706465 -4.0625 13.3125 C-3.66332316 12.02460815 -3.26165457 10.7374858 -2.85742188 9.45117188 C-1.88017102 6.30748537 -0.92903348 3.15820634 0 0 Z " fill="#F8FBFB" transform="translate(149,37)"/>
<path d="M0 0 C0.99 0 1.98 0 3 0 C0.74603165 8.814299 -2.0624369 17.39630728 -5 26 C-3.93136719 25.49339844 -2.86273438 24.98679687 -1.76171875 24.46484375 C1.19975504 23.19393692 2.99868315 22.72749023 6.1875 23.5625 C10.01817325 24.45189083 10.01817325 24.45189083 12.5 22.0625 C13.2425 21.0415625 13.2425 21.0415625 14 20 C13.67 22.31 13.34 24.62 13 27 C13.763125 26.236875 14.52625 25.47375 15.3125 24.6875 C17.20833333 22.79166667 19.10416667 20.89583333 21 19 C21.33 19.66 21.66 20.32 22 21 C21.0625 23.125 21.0625 23.125 20 25 C23.77817141 22.64913779 26.42254901 20.60843139 29 17 C29.66 17 30.32 17 31 17 C31 19.31 31 21.62 31 24 C31.99 23.67 32.98 23.34 34 23 C34.71706982 21.01751285 35.38290413 19.01584651 36 17 C36.66 16.34 37.32 15.68 38 15 C40.125 15.375 40.125 15.375 42 16 C41.49396008 18.16874252 41.00016187 19.99967627 40 22 C42.64 21.67 45.28 21.34 48 21 C46.5 23 46.5 23 44 25 C41.94405232 25.21065038 40.05668398 25.1300927 38 24.9453125 C35.92908982 24.86072902 35.92908982 24.86072902 34.01953125 25.9921875 C31.66807776 27.16564011 30.28791277 27.14780321 27.6875 27 C23.45257642 26.88873764 20.06116582 27.75041052 16 29 C13.0625 29.125 13.0625 29.125 11 29 C11 28.34 11 27.68 11 27 C9.09415804 27.20376178 9.09415804 27.20376178 7 28 C6.525625 28.680625 6.05125 29.36125 5.5625 30.0625 C5.046875 30.701875 4.53125 31.34125 4 32 C1.3125 32.25 1.3125 32.25 -1 32 C-1 30.35 -1 28.7 -1 27 C-3.46452205 27.36059308 -3.46452205 27.36059308 -6 29 C-7.54159004 31.7759428 -8.40322211 34.71747427 -9.3125 37.75 C-9.70791992 38.94882813 -9.70791992 38.94882813 -10.11132812 40.171875 C-11.4940489 44.53911776 -12.42976931 48.36723253 -12 53 C-11.67 53.33 -11.34 53.66 -11 54 C-10.90659566 55.62674778 -10.88254829 57.25754051 -10.88647461 58.88696289 C-10.88655014 59.92796646 -10.88662567 60.96897003 -10.88670349 62.04151917 C-10.89186478 63.1737944 -10.89702606 64.30606964 -10.90234375 65.47265625 C-10.90446617 67.20182533 -10.90446617 67.20182533 -10.90663147 68.96592712 C-10.91224995 72.66481064 -10.92480558 76.36363464 -10.9375 80.0625 C-10.94251262 82.56315017 -10.94707594 85.06380129 -10.95117188 87.56445312 C-10.96222538 93.70965588 -10.97898148 99.85482369 -11 106 C-18.65178571 106.14285714 -18.65178571 106.14285714 -22 104 C-22.33 104.33 -22.66 104.66 -23 105 C-24.98757028 105.09983058 -26.9786752 105.13080753 -28.96875 105.1328125 C-30.17917969 105.13410156 -31.38960938 105.13539063 -32.63671875 105.13671875 C-33.91160156 105.13285156 -35.18648438 105.12898438 -36.5 105.125 C-37.77488281 105.12886719 -39.04976563 105.13273437 -40.36328125 105.13671875 C-41.57371094 105.13542969 -42.78414063 105.13414062 -44.03125 105.1328125 C-45.15080078 105.13168457 -46.27035156 105.13055664 -47.42382812 105.12939453 C-50 105 -50 105 -51 104 C-51.125 101.5 -51.125 101.5 -51 99 C-50 98 -50 98 -46.18359375 97.90234375 C-44.60153318 97.90901911 -43.01948841 97.92098125 -41.4375 97.9375 C-40.63119141 97.94201172 -39.82488281 97.94652344 -38.99414062 97.95117188 C-36.99606244 97.96299482 -34.99802217 97.98093086 -33 98 C-34.5560077 94.51789484 -36.12100438 91.03989807 -37.6875 87.5625 C-38.12255859 86.58861328 -38.55761719 85.61472656 -39.00585938 84.61132812 C-41.73392724 78.56916301 -44.67113717 72.73388782 -48 67 C-48.36762451 67.76554199 -48.73524902 68.53108398 -49.11401367 69.31982422 C-50.5018906 72.20896316 -51.89048618 75.09775534 -53.27954102 77.98632812 C-53.8761753 79.22740444 -54.47253776 80.46861147 -55.06860352 81.70996094 C-65.56233003 103.56233003 -65.56233003 103.56233003 -67 105 C-69.32835228 105.07164161 -71.6402961 104.9964482 -73.96875 104.9375 C-75.99609236 104.76775055 -75.99609236 104.76775055 -77 106 C-78.84891946 106.23363881 -80.70488031 106.41303635 -82.5625 106.5625 C-83.57441406 106.64628906 -84.58632812 106.73007813 -85.62890625 106.81640625 C-86.41136719 106.87699219 -87.19382813 106.93757813 -88 107 C-87.01 107.495 -87.01 107.495 -86 108 C-86.495 109.98 -86.495 109.98 -87 112 C-83.04 112.33 -79.08 112.66 -75 113 C-75 113.66 -75 114.32 -75 115 C-74.01 114.67 -73.02 114.34 -72 114 C-72 118.29 -72 122.58 -72 127 C-72.66 126.67 -73.32 126.34 -74 126 C-74.33 126.66 -74.66 127.32 -75 128 C-77.43359375 128.37890625 -77.43359375 128.37890625 -80.4375 128.5625 C-84.36535217 128.73109366 -84.36535217 128.73109366 -88 130 C-88.33 129.01 -88.66 128.02 -89 127 C-89.33 127.33 -89.66 127.66 -90 128 C-92.01964199 128.07244053 -94.04167124 128.08377188 -96.0625 128.0625 C-97.16722656 128.05347656 -98.27195313 128.04445312 -99.41015625 128.03515625 C-100.69212891 128.01775391 -100.69212891 128.01775391 -102 128 C-102.02697137 125.39576408 -102.04682489 122.79180756 -102.0625 120.1875 C-102.07087891 119.44951172 -102.07925781 118.71152344 -102.08789062 117.95117188 C-102.10259828 114.70077932 -102.03531702 112.10595105 -101 109 C-101.07045298 106.42890906 -101.07045298 106.42890906 -102 104 C-103.85591523 102.60632368 -103.85591523 102.60632368 -106.1875 101.6875 C-112.29101084 98.59686872 -115.3621365 94.27572701 -118.375 88.25 C-120.08028444 79.38252093 -119.52974002 72.78549066 -115 65 C-115 64.01 -115 63.02 -115 62 C-115.66 62 -116.32 62 -117 62 C-118.04115841 63.30144802 -119.03886134 64.63838689 -120 66 C-122.13414229 68.13414229 -124.05022074 68.89064264 -126.80859375 70.0078125 C-129.47704573 71.21598862 -131.96095508 72.66513648 -134.5 74.125 C-138.81204125 76.52784782 -142.08403472 77.78151265 -147 78 C-147 77.34 -147 76.68 -147 76 C-145.96101562 75.59910156 -144.92203125 75.19820313 -143.8515625 74.78515625 C-134.53007517 71.04157357 -125.23808717 66.93383249 -119.765625 57.98046875 C-118.47340739 54.63784461 -118.43768141 51.51996835 -119 48 C-121.63273187 44.1081355 -126.16500729 41.79676288 -130.07421875 39.26953125 C-132 38 -132 38 -133 37 C-133.876926 28.81535732 -131.05423866 23.80294308 -125.9921875 17.5 C-123.14683692 14.22417203 -120.62338308 11.41558872 -117 9 C-115.68 9 -114.36 9 -113 9 C-113 9.66 -113 10.32 -113 11 C-113.845625 11.33 -114.69125 11.66 -115.5625 12 C-123.08682598 16.37778966 -128.6565262 24.07392941 -130.9375 32.4375 C-129.57015208 37.63342209 -126.20279846 39.1987449 -121.796875 42.0078125 C-118.2635739 44.52454932 -115.60581042 47.13208453 -114.25 51.3125 C-114.1675 51.869375 -114.085 52.42625 -114 53 C-113.38125 51.88625 -112.7625 50.7725 -112.125 49.625 C-110.86718769 47.36093785 -109.85384858 45.85384858 -108 44 C-106.88625 44.226875 -105.7725 44.45375 -104.625 44.6875 C-103.42875 44.790625 -102.2325 44.89375 -101 45 C-96.80548245 40.67465929 -94.4110277 35.27001828 -91.68359375 29.9609375 C-90.27896939 27.49062366 -89.24544836 25.70876153 -87 24 C-84.8125 24.3125 -84.8125 24.3125 -83 25 C-82.85177265 31.81845791 -86.20135974 34.97015582 -90.7734375 39.765625 C-92.07200374 41.06874761 -93.38100482 42.36191118 -94.71484375 43.62890625 C-96.48341785 45.51574366 -97.15135576 47.58462792 -98 50 C-93.2462315 48.77760238 -91.60043684 46.43066466 -89.11328125 42.4609375 C-88.74589844 41.97882813 -88.37851563 41.49671875 -88 41 C-87.34 41 -86.68 41 -86 41 C-86.33 42.65 -86.66 44.3 -87 46 C-83.57421051 42.82460444 -83.57421051 42.82460444 -81 39 C-80.34 39 -79.68 39 -79 39 C-79.33 40.98 -79.66 42.96 -80 45 C-79.03644756 43.92130607 -78.07938583 42.83681257 -77.125 41.75 C-76.59132813 41.14671875 -76.05765625 40.5434375 -75.5078125 39.921875 C-74.0202513 38.02581254 -72.99677564 36.18709995 -72 34 C-73.65 34 -75.3 34 -77 34 C-77 33.01 -77 32.02 -77 31 C-74.36 31 -71.72 31 -69 31 C-68.505 29.515 -68.505 29.515 -68 28 C-67.34 28 -66.68 28 -66 28 C-65.505 29.485 -65.505 29.485 -65 31 C-65.61875 31.598125 -66.2375 32.19625 -66.875 32.8125 C-70.39052333 36.43142107 -71.34411825 39.08088687 -72 44 C-67.99655973 41.10862647 -65.70032872 38.09705048 -63 34 C-62.34 34 -61.68 34 -61 34 C-61.99 36.97 -62.98 39.94 -64 43 C-63.2575 42.2575 -62.515 41.515 -61.75 40.75 C-60.8425 39.8425 -59.935 38.935 -59 38 C-58.38125 37.21625 -57.7625 36.4325 -57.125 35.625 C-56.42375 35.08875 -55.7225 34.5525 -55 34 C-53.2984375 34.2784375 -53.2984375 34.2784375 -51.5625 34.5625 C-50.386875 34.706875 -49.21125 34.85125 -48 35 C-45.16588845 32.666508 -45.16588845 32.666508 -43 30 C-42.34 30 -41.68 30 -41 30 C-41 31.65 -41 33.3 -41 35 C-40.236875 34.175 -39.47375 33.35 -38.6875 32.5 C-36 30 -36 30 -33 30 C-32.87625 30.969375 -32.7525 31.93875 -32.625 32.9375 C-32.315625 34.4534375 -32.315625 34.4534375 -32 36 C-31.34 36.33 -30.68 36.66 -30 37 C-30 36.01 -30 35.02 -30 34 C-29.01 34 -28.02 34 -27 34 C-26.34 32.68 -25.68 31.36 -25 30 C-23.02 30 -21.04 30 -19 30 C-18.74605469 29.07316406 -18.49210938 28.14632812 -18.23046875 27.19140625 C-17.88628906 25.99386719 -17.54210937 24.79632813 -17.1875 23.5625 C-16.85105469 22.36753906 -16.51460937 21.17257813 -16.16796875 19.94140625 C-15.78253906 18.97074219 -15.39710938 18.00007813 -15 17 C-14.01 16.67 -13.02 16.34 -12 16 C-12.47811177 17.77111844 -12.9575278 19.54188483 -13.4375 21.3125 C-13.70433594 22.29863281 -13.97117188 23.28476562 -14.24609375 24.30078125 C-14.78079425 26.21517526 -15.37144538 28.11433615 -16 30 C-12.85755587 29.36535706 -11.44117568 28.99002653 -9 27 C-6.76220066 22.62510613 -5.44337018 18.01706465 -4.0625 13.3125 C-3.66332316 12.02460815 -3.26165457 10.7374858 -2.85742188 9.45117188 C-1.88017102 6.30748537 -0.92903348 3.15820634 0 0 Z " fill="#F8FBFB" transform="translate(149,37)"/>
<path d="M0 0 C5.47104 3.23983374 9.30579419 7.16657666 11.84765625 13.0546875 C12.86340117 19.34161393 12.04274217 24.16706668 8.34765625 29.36328125 C4.81475576 33.34699456 0.67039103 35.78437852 -4.640625 36.29296875 C-10.69890728 36.45217672 -14.45190839 36.2965438 -19.15234375 32.0546875 C-24.31178758 26.33746596 -24.50015019 21.71416153 -24.43359375 14.2265625 C-23.95481736 8.8270288 -21.55203853 6.34671345 -17.71484375 2.8046875 C-12.26290605 -0.91858703 -6.30419226 -2.76881039 0 0 Z " fill="#FBFDFD" transform="translate(178.15234375,98.9453125)"/>
<path d="M0 0 C5.68203463 3.5607417 10.29162774 8.84366241 13 14.9375 C14.29974225 24.36063129 14.15187897 31.55453655 8.5 39.5625 C3.45092853 45.16105974 -1.28435121 48.19363073 -8.9375 48.86328125 C-10.7009375 48.86908203 -10.7009375 48.86908203 -12.5 48.875 C-13.675625 48.89175781 -14.85125 48.90851563 -16.0625 48.92578125 C-22.82924012 48.21065985 -27.90372444 44.35958372 -32.5 39.5625 C-37.41629918 32.72114391 -38.44196903 25.82115874 -37.5 17.5625 C-34.94789883 9.33376258 -29.79710514 4.06258278 -22.73828125 -0.6015625 C-16.47436864 -2.94096442 -6.07596445 -2.66127243 0 0 Z M-26.4375 11.6875 C-30.49589717 17.34465969 -30.08607275 22.74126436 -29.5 29.5625 C-27.93696768 34.50643918 -24.73179024 37.66706457 -20.5 40.5625 C-16.02615613 42.79942193 -9.82405911 42.26932128 -5.13671875 40.84375 C0.56180551 38.18229234 4.00154587 34.33951631 6.5 28.5625 C7.52474892 22.21984352 6.65984406 17.47643405 2.9296875 12.25 C0.99556918 9.96710624 -1.01185599 8.22126268 -3.5 6.5625 C-4.3971875 5.94375 -4.3971875 5.94375 -5.3125 5.3125 C-13.3637465 2.55207263 -21.05770308 5.38015188 -26.4375 11.6875 Z " fill="#258D77" transform="translate(183.5,93.4375)"/>
<path d="M0 0 C2.3125 0.1875 2.3125 0.1875 5 1 C7.42952989 4.53789791 9.17435951 8.36860026 10.9609375 12.26171875 C11.36960556 13.14776543 11.36960556 13.14776543 11.78652954 14.05171204 C12.65205092 15.92908039 13.51381725 17.80813797 14.375 19.6875 C15.50576873 22.15068478 16.63880418 24.61281193 17.7734375 27.07421875 C18.31621338 28.25242187 18.85898926 29.430625 19.41821289 30.64453125 C21.22077609 34.46833564 23.13110798 38.22570822 25.10864258 41.96166992 C26.3087983 44.70615092 26.38780379 47.05269116 26 50 C23.40446166 51.29776917 21.49294473 51.12950035 18.58984375 51.1328125 C16.98206055 51.13474609 16.98206055 51.13474609 15.34179688 51.13671875 C14.21837891 51.13285156 13.09496094 51.12898438 11.9375 51.125 C10.24657227 51.13080078 10.24657227 51.13080078 8.52148438 51.13671875 C7.45091797 51.13542969 6.38035156 51.13414062 5.27734375 51.1328125 C4.28984131 51.13168457 3.30233887 51.13055664 2.28491211 51.12939453 C0 51 0 51 -1 50 C-1.125 47.5 -1.125 47.5 -1 45 C0 44 0 44 3.81640625 43.90234375 C5.39846682 43.90901911 6.98051159 43.92098125 8.5625 43.9375 C9.36880859 43.94201172 10.17511719 43.94652344 11.00585938 43.95117188 C13.00393756 43.96299482 15.00197783 43.98093086 17 44 C15.4439923 40.51789484 13.87899562 37.03989807 12.3125 33.5625 C11.87744141 32.58861328 11.44238281 31.61472656 10.99414062 30.61132812 C8.26607276 24.56916301 5.32886283 18.73388782 2 13 C1.63237549 13.76554199 1.26475098 14.53108398 0.88598633 15.31982422 C-0.5018906 18.20896316 -1.89048618 21.09775534 -3.27954102 23.98632812 C-3.8761753 25.22740444 -4.47253776 26.46861147 -5.06860352 27.70996094 C-6.50101718 30.69285096 -7.93871015 33.67281065 -9.38818359 36.64746094 C-10.41184205 38.77664571 -11.40785008 40.91952184 -12.36572266 43.07910156 C-12.77741699 43.98370117 -13.18911133 44.88830078 -13.61328125 45.8203125 C-13.95786377 46.60937988 -14.30244629 47.39844727 -14.6574707 48.21142578 C-16 50 -16 50 -18.58666992 50.82373047 C-19.38306885 50.88189941 -20.17946777 50.94006836 -21 51 C-21.33 50.67 -21.66 50.34 -22 50 C-21.5852184 45.12827627 -20.49047978 41.34309769 -18.33984375 36.97265625 C-17.79674561 35.85737549 -17.25364746 34.74209473 -16.6940918 33.59301758 C-16.1144165 32.42794678 -15.53474121 31.26287598 -14.9375 30.0625 C-14.3453075 28.85545525 -13.75392125 27.64801461 -13.16333008 26.44018555 C-11.4548921 22.95380216 -9.72887571 19.47629716 -8 16 C-7.30874023 14.60491211 -7.30874023 14.60491211 -6.60351562 13.18164062 C-4.42071491 8.77834563 -2.22202397 4.38363037 0 0 Z " fill="#2C8F7A" transform="translate(99,91)"/>
<path d="M0 0 C1.37091797 0.00773437 1.37091797 0.00773437 2.76953125 0.015625 C9.47027726 0.09527726 9.47027726 0.09527726 10.625 1.25 C10.66580783 3.24958364 10.66754356 5.25045254 10.625 7.25 C10.03074219 7.24363525 9.43648437 7.23727051 8.82421875 7.23071289 C-4.1702611 6.56921454 -4.1702611 6.56921454 -15.5625 11.5 C-19.67474577 16.34832795 -20.86840274 20.609164 -20.6796875 26.91015625 C-19.95670254 32.46231 -17.56828954 36.75672998 -13.125 40.1875 C-6.93025426 43.71046609 0.73642453 43.07778561 7.625 43.25 C7.625 36.32 7.625 29.39 7.625 22.25 C9.605 22.25 11.585 22.25 13.625 22.25 C16.21455157 24.83955157 14.81058792 32.20177603 14.8125 35.6875 C14.82474609 36.85861328 14.83699219 38.02972656 14.84960938 39.23632812 C14.85154297 40.35330078 14.85347656 41.47027344 14.85546875 42.62109375 C14.85957764 43.65161865 14.86368652 44.68214355 14.86791992 45.74389648 C14.625 48.25 14.625 48.25 12.625 50.25 C9.29343883 50.73107727 5.92481504 50.62040981 2.5625 50.625 C1.64533203 50.64949219 0.72816406 50.67398438 -0.21679688 50.69921875 C-8.06306866 50.73258348 -14.19969502 49.00193098 -20.1875 43.8125 C-20.909375 42.966875 -21.63125 42.12125 -22.375 41.25 C-23.096875 40.445625 -23.81875 39.64125 -24.5625 38.8125 C-29.00500801 32.53171282 -29.15213718 25.71641921 -28.375 18.25 C-26.64288901 12.12019402 -22.44411666 7.02081183 -17.375 3.25 C-11.51525012 0.04904664 -6.59855112 -0.15278845 0 0 Z " fill="#288C78" transform="translate(58.375,91.75)"/>
<path d="M0 0 C0.66 0 1.32 0 2 0 C4.02264128 5.05584831 4.30697575 9.40419429 4.30078125 14.7578125 C4.30506638 15.58328583 4.3093515 16.40875916 4.31376648 17.25924683 C4.31948505 18.99557582 4.32002837 20.73192877 4.31567383 22.46826172 C4.31250145 25.1237852 4.33604574 27.77820675 4.36132812 30.43359375 C4.36360015 32.1249986 4.36430507 33.81640643 4.36328125 35.5078125 C4.372491 36.29954865 4.38170074 37.09128479 4.39118958 37.90701294 C4.36344669 41.20794542 4.23878106 43.57446865 2.60620117 46.48388672 C1 48 1 48 -1.0625 48.75 C-3.53095139 50.34254928 -3.55830256 51.32877629 -4.25 54.125 C-4.4975 55.40375 -4.745 56.6825 -5 58 C-5.99 58 -6.98 58 -8 58 C-9.36176581 56.01924973 -10.69593116 54.01920337 -12 52 C-12.66 52 -13.32 52 -14 52 C-14.33 53.98 -14.66 55.96 -15 58 C-16.60332791 58.08121924 -18.20784026 58.13929134 -19.8125 58.1875 C-21.15248047 58.23970703 -21.15248047 58.23970703 -22.51953125 58.29296875 C-25 58 -25 58 -26.796875 56.76953125 C-29.02550262 53.49171206 -28.64977339 49.79269903 -28 46 C-26.1875 43.9375 -26.1875 43.9375 -24 43 C-23.01 43 -22.02 43 -21 43 C-21 42.34 -21 41.68 -21 41 C-20.34 41 -19.68 41 -19 41 C-19 40.34 -19 39.68 -19 39 C-19.99 39 -20.98 39 -22 39 C-22 38.34 -22 37.68 -22 37 C-24.31 36.67 -26.62 36.34 -29 36 C-29 35.67 -29 35.34 -29 35 C-28.01 34.92523438 -27.02 34.85046875 -26 34.7734375 C-18.06174918 34.03780013 -11.63753842 33.13282603 -6 27 C-1.0995104 20.68094762 0.30904495 15.6085117 0.125 7.6875 C0.11597656 6.94693359 0.10695312 6.20636719 0.09765625 5.44335938 C0.07424213 3.62876533 0.03837615 1.81433929 0 0 Z " fill="#F7FCFC" transform="translate(196,107)"/>
<path d="M0 0 C2.1875 0.3125 2.1875 0.3125 4 1 C4.14822735 7.81845791 0.79864026 10.97015582 -3.7734375 15.765625 C-5.07200374 17.06874761 -6.38100482 18.36191118 -7.71484375 19.62890625 C-9.48341785 21.51574366 -10.15135576 23.58462792 -11 26 C-6.2462315 24.77760238 -4.60043684 22.43066466 -2.11328125 18.4609375 C-1.56220703 17.73777344 -1.56220703 17.73777344 -1 17 C-0.34 17 0.32 17 1 17 C0.67 18.65 0.34 20.3 0 22 C3.42578949 18.82460444 3.42578949 18.82460444 6 15 C6.66 15 7.32 15 8 15 C7.67 16.98 7.34 18.96 7 21 C7.96355244 19.92130607 8.92061417 18.83681257 9.875 17.75 C10.40867188 17.14671875 10.94234375 16.5434375 11.4921875 15.921875 C12.9797487 14.02581254 14.00322436 12.18709995 15 10 C13.35 10 11.7 10 10 10 C10 9.01 10 8.02 10 7 C12.64 7 15.28 7 18 7 C18.33 6.01 18.66 5.02 19 4 C19.66 4 20.32 4 21 4 C21.495 5.485 21.495 5.485 22 7 C21.38125 7.598125 20.7625 8.19625 20.125 8.8125 C16.60947667 12.43142107 15.65588175 15.08088687 15 20 C19.00344027 17.10862647 21.29967128 14.09705048 24 10 C24.66 10 25.32 10 26 10 C25.01 12.97 24.02 15.94 23 19 C23.7425 18.2575 24.485 17.515 25.25 16.75 C26.1575 15.8425 27.065 14.935 28 14 C28.928125 12.824375 28.928125 12.824375 29.875 11.625 C30.926875 10.820625 30.926875 10.820625 32 10 C33.7015625 10.2784375 33.7015625 10.2784375 35.4375 10.5625 C37.2009375 10.7790625 37.2009375 10.7790625 39 11 C41.83411155 8.666508 41.83411155 8.666508 44 6 C44.66 6 45.32 6 46 6 C46 7.65 46 9.3 46 11 C46.763125 10.175 47.52625 9.35 48.3125 8.5 C51 6 51 6 54 6 C54.495 8.97 54.495 8.97 55 12 C55.99 12.33 56.98 12.66 58 13 C58 12.34 58 11.68 58 11 C58.66 11 59.32 11 60 11 C59.67 12.32 59.34 13.64 59 15 C57.35 15.33 55.7 15.66 54 16 C53.01 13.03 53.01 13.03 52 10 C51.44570312 10.5053125 50.89140625 11.010625 50.3203125 11.53125 C49.59585938 12.1809375 48.87140625 12.830625 48.125 13.5 C47.40570313 14.1496875 46.68640625 14.799375 45.9453125 15.46875 C44 17 44 17 42 17 C42 15.35 42 13.7 42 12 C41.40832031 12.5053125 40.81664063 13.010625 40.20703125 13.53125 C39.41683594 14.1809375 38.62664062 14.830625 37.8125 15.5 C37.03519531 16.1496875 36.25789063 16.799375 35.45703125 17.46875 C32.63431446 19.22789941 31.24813454 19.1275863 28 19 C27.01 19.66 26.02 20.32 25 21 C23.00039988 21.039992 20.99952758 21.04346799 19 21 C18.505 21.495 18.505 21.495 18 22 C16.33382885 22.04063832 14.66611905 22.042721 13 22 C13 21.34 13 20.68 13 20 C11.948125 20.99 11.948125 20.99 10.875 22 C7.41898694 24.404183 6.11455779 24 2 24 C-0.35010389 24.9317226 -2.59617483 26.01615482 -4.875 27.109375 C-7.35510485 28.14883071 -9.33462398 28.34391949 -12 28 C-12.66 26.68 -13.32 25.36 -14 24 C-17.09596458 24.65434116 -17.09596458 24.65434116 -18.0625 26.9375 C-18.5265625 27.9584375 -18.5265625 27.9584375 -19 29 C-19.66 29.66 -20.32 30.32 -21 31 C-23.125 30.625 -23.125 30.625 -25 30 C-24.40806045 23.72544081 -24.40806045 23.72544081 -22.875 21 C-21 20 -21 20 -17.5625 20.625 C-16.386875 20.74875 -15.21125 20.8725 -14 21 C-9.80564168 16.67456798 -7.41095975 11.26988601 -4.68359375 5.9609375 C-3.27896939 3.49062366 -2.24544836 1.70876153 0 0 Z " fill="#32332F" transform="translate(62,61)"/>
<path d="M0 0 C0.66 1.32 1.32 2.64 2 4 C-2.02463135 5.34154378 -5.45798391 6.21418691 -9.6875 6.5625 C-10.68136719 6.64628906 -11.67523438 6.73007813 -12.69921875 6.81640625 C-13.45847656 6.87699219 -14.21773437 6.93757812 -15 7 C-14.34 7.33 -13.68 7.66 -13 8 C-13.33 9.32 -13.66 10.64 -14 12 C-10.04 12.33 -6.08 12.66 -2 13 C-2 13.66 -2 14.32 -2 15 C-1.01 14.67 -0.02 14.34 1 14 C1 18.29 1 22.58 1 27 C0.34 26.67 -0.32 26.34 -1 26 C-1.33 26.66 -1.66 27.32 -2 28 C-4.43359375 28.37890625 -4.43359375 28.37890625 -7.4375 28.5625 C-11.36535217 28.73109366 -11.36535217 28.73109366 -15 30 C-15.33 29.01 -15.66 28.02 -16 27 C-16.33 27.33 -16.66 27.66 -17 28 C-19.01964199 28.07244053 -21.04167124 28.08377188 -23.0625 28.0625 C-24.16722656 28.05347656 -25.27195313 28.04445312 -26.41015625 28.03515625 C-27.69212891 28.01775391 -27.69212891 28.01775391 -29 28 C-29.02697137 25.39576408 -29.04682489 22.79180756 -29.0625 20.1875 C-29.07087891 19.44951172 -29.07925781 18.71152344 -29.08789062 17.95117188 C-29.10259828 14.70077932 -29.03531702 12.10595105 -28 9 C-27.96125079 7.33378384 -27.9549714 5.66605828 -28 4 C-27.3294458 4.02094727 -26.6588916 4.04189453 -25.96801758 4.06347656 C-22.9163322 4.14686027 -19.86488683 4.19873016 -16.8125 4.25 C-15.75740234 4.28351563 -14.70230469 4.31703125 -13.61523438 4.3515625 C-7.36310276 4.48961749 -7.36310276 4.48961749 -1.76171875 1.984375 C-1.18035156 1.32953125 -0.59898438 0.6746875 0 0 Z " fill="#EFFAF9" transform="translate(76,137)"/>
<path d="M0 0 C0.99 0 1.98 0 3 0 C0.74603165 8.814299 -2.0624369 17.39630728 -5 26 C-3.93136719 25.49339844 -2.86273438 24.98679687 -1.76171875 24.46484375 C1.19975504 23.19393692 2.99868315 22.72749023 6.1875 23.5625 C10.01817325 24.45189083 10.01817325 24.45189083 12.5 22.0625 C12.995 21.381875 13.49 20.70125 14 20 C13.67 22.31 13.34 24.62 13 27 C13.763125 26.236875 14.52625 25.47375 15.3125 24.6875 C17.20833333 22.79166667 19.10416667 20.89583333 21 19 C21.495 19.99 21.495 19.99 22 21 C21.0625 23.125 21.0625 23.125 20 25 C23.77817141 22.64913779 26.42254901 20.60843139 29 17 C29.66 17 30.32 17 31 17 C31 19.31 31 21.62 31 24 C31.99 23.67 32.98 23.34 34 23 C34.71706982 21.01751285 35.38290413 19.01584651 36 17 C36.66 16.34 37.32 15.68 38 15 C40.125 15.375 40.125 15.375 42 16 C41.49396008 18.16874252 41.00016187 19.99967627 40 22 C43.96 21.505 43.96 21.505 48 21 C46.5 23 46.5 23 44 25 C41.94405232 25.21065038 40.05668398 25.1300927 38 24.9453125 C35.92908982 24.86072902 35.92908982 24.86072902 34.01953125 25.9921875 C31.66807776 27.16564011 30.28791277 27.14780321 27.6875 27 C23.45257642 26.88873764 20.06116582 27.75041052 16 29 C13.0625 29.125 13.0625 29.125 11 29 C11 28.34 11 27.68 11 27 C9.09415804 27.20376178 9.09415804 27.20376178 7 28 C6.525625 28.680625 6.05125 29.36125 5.5625 30.0625 C5.046875 30.701875 4.53125 31.34125 4 32 C1.3125 32.25 1.3125 32.25 -1 32 C-1 30.35 -1 28.7 -1 27 C-4.81608864 28.10664074 -4.81608864 28.10664074 -7.19433594 31.12304688 C-7.45504883 31.97962891 -7.71576172 32.83621094 -7.984375 33.71875 C-8.27957031 34.65074219 -8.57476562 35.58273438 -8.87890625 36.54296875 C-9.16636719 37.51878906 -9.45382813 38.49460938 -9.75 39.5 C-10.34829945 41.427288 -10.94722702 43.35438115 -11.546875 45.28125 C-11.93117676 46.56612305 -11.93117676 46.56612305 -12.32324219 47.87695312 C-13 50 -13 50 -14 52 C-14.66 52 -15.32 52 -16 52 C-14.89281813 46.49014198 -13.49986384 41.23229715 -11.5859375 35.9453125 C-10.85579696 33.85985267 -10.85579696 33.85985267 -11 31 C-12.98 31.33 -14.96 31.66 -17 32 C-17.33 34.31 -17.66 36.62 -18 39 C-18.66 39 -19.32 39 -20 39 C-20 37.35 -20 35.7 -20 34 C-21.32 34 -22.64 34 -24 34 C-24 33.34 -24 32.68 -24 32 C-22.82824219 31.70802734 -22.82824219 31.70802734 -21.6328125 31.41015625 C-18.71379758 30.20288463 -18.71379758 30.20288463 -17.7421875 26.99609375 C-17.45601562 25.82175781 -17.16984375 24.64742187 -16.875 23.4375 C-15.9921875 19.87109375 -15.9921875 19.87109375 -15 17 C-14.01 16.67 -13.02 16.34 -12 16 C-12.47811177 17.77111844 -12.9575278 19.54188483 -13.4375 21.3125 C-13.70433594 22.29863281 -13.97117188 23.28476562 -14.24609375 24.30078125 C-14.78079425 26.21517526 -15.37144538 28.11433615 -16 30 C-12.85755587 29.36535706 -11.44117568 28.99002653 -9 27 C-6.76220066 22.62510613 -5.44337018 18.01706465 -4.0625 13.3125 C-3.66332316 12.02460815 -3.26165457 10.7374858 -2.85742188 9.45117188 C-1.88017102 6.30748537 -0.92903348 3.15820634 0 0 Z " fill="#292A27" transform="translate(149,37)"/>
<path d="M0 0 C2.31 0 4.62 0 7 0 C6.67 1.32 6.34 2.64 6 4 C6.66 4 7.32 4 8 4 C7.96519531 5.46373047 7.96519531 5.46373047 7.9296875 6.95703125 C7.91164063 8.22933594 7.89359375 9.50164062 7.875 10.8125 C7.85179688 12.07707031 7.82859375 13.34164062 7.8046875 14.64453125 C7.72418082 18.1338024 7.72418082 18.1338024 10 21 C9.93039063 20.32453125 9.86078125 19.6490625 9.7890625 18.953125 C9.62223077 16.20437363 9.59408889 13.72601358 10 11 C13.15359065 7.76949251 15.18245186 7.11276526 19.625 6.5 C23 7 23 7 25.4375 8.5625 C27.58879747 11.91852406 27.48947291 14.08421671 27 18 C25.796875 20.203125 25.796875 20.203125 24 22 C21.51953125 22.390625 21.51953125 22.390625 18.8125 22.25 C17.91144531 22.21390625 17.01039062 22.1778125 16.08203125 22.140625 C15.39496094 22.09421875 14.70789063 22.0478125 14 22 C13.67 22.66 13.34 23.32 13 24 C11.35 23.34 9.7 22.68 8 22 C7.67 22.99 7.34 23.98 7 25 C6.01 24.67 5.02 24.34 4 24 C3.938125 22.948125 3.87625 21.89625 3.8125 20.8125 C2.86591384 16.3708265 1.40843742 14.88406243 -2 12 C-2.33 15.3 -2.66 18.6 -3 22 C-3.66 22 -4.32 22 -5 22 C-5 16.72 -5 11.44 -5 6 C-3.68 5.34 -2.36 4.68 -1 4 C-0.19471111 1.94999129 -0.19471111 1.94999129 0 0 Z " fill="#F4F8F9" transform="translate(102,143)"/>
<path d="M0 0 C1.99954746 -0.04254356 4.00041636 -0.04080783 6 0 C7 1 7 1 7.12025452 2.94252014 C7.11803391 3.79301437 7.11581329 4.64350861 7.11352539 5.51977539 C7.11344986 6.48069595 7.11337433 7.44161652 7.11329651 8.43165588 C7.10813522 9.476436 7.10297394 10.52121613 7.09765625 11.59765625 C7.0962413 12.66165146 7.09482635 13.72564667 7.09336853 14.82188416 C7.08775064 18.23545083 7.07519511 21.648953 7.0625 25.0625 C7.05748731 27.37044176 7.052924 29.67838455 7.04882812 31.98632812 C7.0377754 37.65757426 7.02101987 43.32878253 7 49 C5.0085944 49.38133299 3.00720923 49.71325582 1 50 C0 49 0 49 -0.12025452 47.01951599 C-0.11803391 46.15125687 -0.11581329 45.28299774 -0.11352539 44.38842773 C-0.11344986 43.40748642 -0.11337433 42.4265451 -0.11329651 41.4158783 C-0.10813522 40.3492244 -0.10297394 39.2825705 -0.09765625 38.18359375 C-0.0962413 37.0974025 -0.09482635 36.01121124 -0.09336853 34.8921051 C-0.08775048 31.40720925 -0.07519492 27.92237658 -0.0625 24.4375 C-0.05748733 22.08138113 -0.05292402 19.72526126 -0.04882812 17.36914062 C-0.03777519 11.57940536 -0.02101951 5.78970719 0 0 Z " fill="#238A74" transform="translate(131,92)"/>
<path d="M0 0 C0.99 0 1.98 0 3 0 C3 3.96 3 7.92 3 12 C5.64 12 8.28 12 11 12 C11.08226668 8.95613276 10.97608217 6.92824652 10 4 C17.69230769 -0.92307692 17.69230769 -0.92307692 23 0 C25.875 1.5 25.875 1.5 28 4 C28.69618391 7.00872525 28.45326577 8.82713964 28 12 C26.5 14 26.5 14 24 15 C20.52144213 15.35748026 17.19877392 15.59938696 14 14 C14 14.66 14 15.32 14 16 C13.34 16 12.68 16 12 16 C11.67 16.66 11.34 17.32 11 18 C9.35425434 18.02688151 7.70838587 18.04634123 6.0625 18.0625 C5.14597656 18.07410156 4.22945312 18.08570313 3.28515625 18.09765625 C1 18 1 18 0 17 C-0.07325168 14.13732433 -0.09238205 11.299281 -0.0625 8.4375 C-0.05798828 7.63119141 -0.05347656 6.82488281 -0.04882812 5.99414062 C-0.03700518 3.99606244 -0.01906914 1.99802217 0 0 Z " fill="#D2F3ED" transform="translate(135,150)"/>
<path d="M0 0 C0.99 0 1.98 0 3 0 C3.99 0 4.98 0 6 0 C9 3.33333333 9 3.33333333 9 6 C9.763125 5.195625 10.52625 4.39125 11.3125 3.5625 C14 1 14 1 17 0 C16.05055084 2.62924382 15.20158587 4.75003352 13.4375 6.9375 C11.60731895 9.56341194 11.35734122 11.85539725 11 15 C10.01 15 9.02 15 8 15 C6.63823419 13.01924973 5.30406884 11.01920337 4 9 C3.34 9 2.68 9 2 9 C1.67 10.98 1.34 12.96 1 15 C-0.60332791 15.08121924 -2.20784026 15.13929134 -3.8125 15.1875 C-4.70582031 15.22230469 -5.59914062 15.25710937 -6.51953125 15.29296875 C-9 15 -9 15 -10.796875 13.76953125 C-13.03629261 10.47584236 -12.61727381 6.8100694 -12 3 C-9.00488862 -1.11827814 -4.64983131 -0.22142054 0 0 Z " fill="#E3F3F2" transform="translate(180,150)"/>
<path d="M0 0 C0.66 0.66 1.32 1.32 2 2 C2.66 1.67 3.32 1.34 4 1 C4 1.66 4 2.32 4 3 C4.99 3.33 5.98 3.66 7 4 C6.67 5.32 6.34 6.64 6 8 C7.65 8 9.3 8 11 8 C9.49087042 12.98012761 6.44338151 16.24259942 3 20 C2 17 2 17 2.9375 14.8125 C3.4634375 13.9153125 3.4634375 13.9153125 4 13 C3.34 13 2.68 13 2 13 C1.7525 13.5775 1.505 14.155 1.25 14.75 C-0.16683317 17.3002997 -1.87627537 19.01785701 -4 21 C-4.33 20.34 -4.66 19.68 -5 19 C-4.0625 16.875 -4.0625 16.875 -3 15 C-3.66 15 -4.32 15 -5 15 C-5.226875 15.556875 -5.45375 16.11375 -5.6875 16.6875 C-7.38617978 19.68041199 -9.42072687 21.73527237 -12 24 C-12.99 24 -13.98 24 -15 24 C-14.65790795 20.0089261 -13.5129421 18.26320035 -10.60546875 15.5859375 C-8.48797681 13.4942058 -6.63247347 11.24243161 -4.75 8.9375 C-4.06421875 8.10089844 -3.3784375 7.26429687 -2.671875 6.40234375 C-1.1105514 4.15885306 -0.41881336 2.66685567 0 0 Z " fill="#F1F1EF" transform="translate(66,63)"/>
<path d="M0 0 C0 0.66 0 1.32 0 2 C-0.845625 2.33 -1.69125 2.66 -2.5625 3 C-10.08682598 7.37778966 -15.6565262 15.07392941 -17.9375 23.4375 C-16.55935309 28.67445825 -13.10692992 30.32226803 -8.69921875 33.203125 C-4.49470491 36.00207778 -4.49470491 36.00207778 -3 38 C-2.09582116 42.73268384 -2.4471986 46.87228514 -4.5625 51.1875 C-5.366875 52.115625 -6.17125 53.04375 -7 54 C-7.67675781 54.82757813 -7.67675781 54.82757813 -8.3671875 55.671875 C-14.97433007 63.10080147 -24.13192569 68.0281442 -34 69 C-34 68.34 -34 67.68 -34 67 C-32.96101563 66.59910156 -31.92203125 66.19820313 -30.8515625 65.78515625 C-21.53007517 62.04157357 -12.23808717 57.93383249 -6.765625 48.98046875 C-5.47340739 45.63784461 -5.43768141 42.51996835 -6 39 C-8.63273187 35.1081355 -13.16500729 32.79676288 -17.07421875 30.26953125 C-19 29 -19 29 -20 28 C-20.876926 19.81535732 -18.05423866 14.80294308 -12.9921875 8.5 C-5.60917468 0 -5.60917468 0 0 0 Z " fill="#21211F" transform="translate(36,46)"/>
<path d="M0 0 C0 0.66 0 1.32 0 2 C0.99 1.67 1.98 1.34 3 1 C3 5.29 3 9.58 3 14 C2.34 13.67 1.68 13.34 1 13 C0.67 13.66 0.34 14.32 0 15 C-2.8580389 15.23816991 -5.19811145 15.42242213 -8 15 C-11.02791041 12.42627616 -11.86162709 10.84753406 -12.5 6.9375 C-12 4 -12 4 -10.5 1.625 C-6.86748926 -0.73613198 -4.28156703 -0.2854378 0 0 Z " fill="#EBF6F6" transform="translate(74,150)"/>
<path d="M0 0 C3.5 0.5625 3.5 0.5625 5.9375 2.125 C8.08879747 5.48102406 7.98947291 7.64671671 7.5 11.5625 C6.5 14 6.5 14 4.5 15.5625 C0.04334931 16.1284239 -2.23102871 16.38733134 -6 13.9375 C-7.9674199 10.82241849 -8.0923739 9.19079011 -7.5 5.5625 C-5.39039736 1.68083115 -4.40778028 0.70839326 0 0 Z " fill="#428D79" transform="translate(121.5,149.4375)"/>
<path d="M0 0 C0.2475 0.61875 0.495 1.2375 0.75 1.875 C2.29802912 4.5066495 3.15909116 4.91596899 6 6 C8.40837755 6.28878735 10.82810468 6.49045026 13.25 6.625 C14.51328125 6.69976562 15.7765625 6.77453125 17.078125 6.8515625 C18.04234375 6.90054688 19.0065625 6.94953125 20 7 C20 7.33 20 7.66 20 8 C19.43603516 8.0093457 18.87207031 8.01869141 18.29101562 8.02832031 C15.69318008 8.08257486 13.09704081 8.16610683 10.5 8.25 C9.1696875 8.27126953 9.1696875 8.27126953 7.8125 8.29296875 C-0.08323668 8.58325319 -5.91447007 10.92872506 -12 16 C-12.99 15.34 -13.98 14.68 -15 14 C-15.61875 14.78375 -16.2375 15.5675 -16.875 16.375 C-19 19 -19 19 -21 21 C-21.99 20.67 -22.98 20.34 -24 20 C-23.51789062 19.53851563 -23.03578125 19.07703125 -22.5390625 18.6015625 C-17.50040319 13.39837554 -15.72099621 9.18053369 -15 2 C-14.34 3.32 -13.68 4.64 -13 6 C-12.34 5.01 -11.68 4.02 -11 3 C-10.67 4.32 -10.34 5.64 -10 7 C-5.74545047 6.52727227 -3.80795427 4.03562624 -1 1 C-0.67 0.67 -0.34 0.34 0 0 Z " fill="#DBE7E5" transform="translate(48,84)"/>
<path d="M0 0 C1.98 0 3.96 0 6 0 C6 8.25 6 16.5 6 25 C5.67 24.34 5.34 23.68 5 23 C3.35 22.67 1.7 22.34 0 22 C0 14.74 0 7.48 0 0 Z " fill="#169075" transform="translate(66,114)"/>
<path d="M0 0 C0.66 0 1.32 0 2 0 C1.52188823 1.77111844 1.0424722 3.54188483 0.5625 5.3125 C0.29566406 6.29863281 0.02882812 7.28476562 -0.24609375 8.30078125 C-0.78079425 10.21517526 -1.37144538 12.11433615 -2 14 C0.97 13.01 3.94 12.02 7 11 C6.38367673 16.3438029 5.15759731 21.2023643 3.5 26.3125 C3.27441406 27.02728516 3.04882812 27.74207031 2.81640625 28.47851562 C1.15829951 33.68340097 1.15829951 33.68340097 0 36 C-0.66 36 -1.32 36 -2 36 C-0.89281813 30.49014198 0.50013616 25.23229715 2.4140625 19.9453125 C3.14420304 17.85985267 3.14420304 17.85985267 3 15 C1.02 15.33 -0.96 15.66 -3 16 C-3.33 18.31 -3.66 20.62 -4 23 C-4.66 23 -5.32 23 -6 23 C-6 21.35 -6 19.7 -6 18 C-7.32 18 -8.64 18 -10 18 C-10 17.34 -10 16.68 -10 16 C-8.83210938 15.70802734 -8.83210938 15.70802734 -7.640625 15.41015625 C-4.71888904 14.19845612 -4.71888904 14.19845612 -3.671875 10.99609375 C-3.21554688 9.23458984 -3.21554688 9.23458984 -2.75 7.4375 C-1.04035874 1.04035874 -1.04035874 1.04035874 0 0 Z " fill="#30302F" transform="translate(135,53)"/>
<path d="M0 0 C0.33 0.99 0.66 1.98 1 3 C3.01508358 3.73323796 3.01508358 3.73323796 5 4 C5.66 6.31 6.32 8.62 7 11 C6.34 11.66 5.68 12.32 5 13 C4.67 12.01 4.34 11.02 4 10 C3.01 10 2.02 10 1 10 C0.67 10.99 0.34 11.98 0 13 C-0.66 12.67 -1.32 12.34 -2 12 C-2 11.34 -2 10.68 -2 10 C-3.65 10 -5.3 10 -7 10 C-7 9.34 -7 8.68 -7 8 C-6.34 8 -5.68 8 -5 8 C-5 7.34 -5 6.68 -5 6 C-5.99 6 -6.98 6 -8 6 C-8 5.34 -8 4.68 -8 4 C-10.31 3.67 -12.62 3.34 -15 3 C-15 2.67 -15 2.34 -15 2 C-10.05 1.34 -5.1 0.68 0 0 Z " fill="#F5FCFC" transform="translate(182,140)"/>
<path d="M0 0 C1.66611905 -0.042721 3.33382885 -0.04063832 5 0 C6 1 6 1 6.12025452 2.94252014 C6.11803391 3.79301437 6.11581329 4.64350861 6.11352539 5.51977539 C6.11344986 6.48069595 6.11337433 7.44161652 6.11329651 8.43165588 C6.10813522 9.476436 6.10297394 10.52121613 6.09765625 11.59765625 C6.0962413 12.66165146 6.09482635 13.72564667 6.09336853 14.82188416 C6.08775064 18.23545083 6.07519511 21.648953 6.0625 25.0625 C6.05748731 27.37044176 6.052924 29.67838455 6.04882812 31.98632812 C6.0377754 37.65757426 6.02101987 43.32878253 6 49 C4.35 48.34 2.7 47.68 1 47 C1.66 46.34 2.32 45.68 3 45 C3.32956935 43.02239739 3.32956935 43.02239739 3.31884766 40.73388672 C3.33871735 39.85312469 3.35858704 38.97236267 3.37905884 38.06491089 C3.39061005 37.11278717 3.40216125 36.16066345 3.4140625 35.1796875 C3.43342865 34.20589142 3.4527948 33.23209534 3.4727478 32.22879028 C3.53264558 29.11094997 3.57896971 25.99307294 3.625 22.875 C3.66317039 20.76430659 3.70222156 18.65362892 3.7421875 16.54296875 C3.83835527 11.36211856 3.92337264 6.18117403 4 1 C2.68 1.33 1.36 1.66 0 2 C0 1.34 0 0.68 0 0 Z " fill="#35917B" transform="translate(132,92)"/>
<path d="M0 0 C6.6 0 13.2 0 20 0 C20.33 1.65 20.66 3.3 21 5 C20 6 20 6 17.234375 6.1328125 C15.50960937 6.12894531 15.50960937 6.12894531 13.75 6.125 C12.04070313 6.12886719 12.04070313 6.12886719 10.296875 6.1328125 C7.39955624 6.01609587 4.81391036 5.66645245 2 5 C2.66 4.67 3.32 4.34 4 4 C4.33 3.34 4.66 2.68 5 2 C3.35 1.67 1.7 1.34 0 1 C0 0.67 0 0.34 0 0 Z " fill="#218873" transform="translate(48,92)"/>
<path d="M0 0 C0.99 0 1.98 0 3 0 C3 1.65 3 3.3 3 5 C5.31 5 7.62 5 10 5 C10 3.35 10 1.7 10 0 C10.66 0 11.32 0 12 0 C12 4.95 12 9.9 12 15 C11.34 15 10.68 15 10 15 C10 12.69 10 10.38 10 8 C7.69 8 5.38 8 3 8 C3 10.31 3 12.62 3 15 C2.01 15 1.02 15 0 15 C0 10.05 0 5.1 0 0 Z " fill="#5BA190" transform="translate(78,150)"/>
<path d="M0 0 C2.9375 0.8125 2.9375 0.8125 4.9375 2.8125 C4.48295455 8.26704545 4.48295455 8.26704545 1.9375 10.8125 C-0.90852594 11.17737512 -2.4489306 11.21449375 -4.875 9.625 C-6.48775784 7.16342224 -6.4959014 5.70184264 -6.0625 2.8125 C-4.28235296 -0.15441173 -3.48497618 -0.21336589 0 0 Z " fill="#E3F4F3" transform="translate(156.0625,152.1875)"/>
<path d="M0 0 C1.32 0.33 2.64 0.66 4 1 C3.85562749 7.92988052 0.77744657 11.19760593 -4 16 C-4.99 15.67 -5.98 15.34 -7 15 C-6.72694671 8.44672101 -4.18788859 4.93069452 0 0 Z " fill="#282926" transform="translate(62,61)"/>
<path d="M0 0 C2.875 1.5 2.875 1.5 5 4 C5.69618391 7.00872525 5.45326577 8.82713964 5 12 C3.21908768 14.37454976 1.95219734 14.84864469 -0.94140625 15.30859375 C-4.19161162 15.50612004 -6.3906306 15.47606984 -9 13.4375 C-10.38885542 10.05216491 -10.45310904 7.62487235 -10 4 C-7.25657347 -0.1151398 -4.81370572 -0.78591114 0 0 Z M-6.75 3.1875 C-8.44316113 5.64258364 -8.4387102 7.07526531 -8 10 C-6.91666667 11.91666667 -6.91666667 11.91666667 -5 13 C-2.5 13.58333333 -2.5 13.58333333 0 13 C2.00965774 11.40383995 2.00965774 11.40383995 3 9 C3.00635246 6.36462492 3.00635246 6.36462492 2 4 C-1.20122823 1.86584784 -3.32288984 0.86196096 -6.75 3.1875 Z " fill="#3D8A75" transform="translate(158,150)"/>
<path d="M0 0 C2.5625 0.3125 2.5625 0.3125 4.375 1.5 C5.98775784 3.96157776 5.9959014 5.42315736 5.5625 8.3125 C4.375 10.125 4.375 10.125 2.5625 11.3125 C0 11.625 0 11.625 -2.4375 11.3125 C-4.4375 9.3125 -4.4375 9.3125 -4.6875 5.8125 C-4.40166115 1.81075612 -4.09542045 0.5250539 0 0 Z " fill="#EDF9F9" transform="translate(121.4375,151.6875)"/>
<path d="M0 0 C0.33 0 0.66 0 1 0 C2.46060606 7.05959596 2.46060606 7.05959596 0.5 11.0625 C-0.7375 12.5165625 -0.7375 12.5165625 -2 14 C-2.45246094 14.55429688 -2.90492187 15.10859375 -3.37109375 15.6796875 C-9.98455906 23.10128198 -19.13170623 28.02812258 -29 29 C-29 28.34 -29 27.68 -29 27 C-27.96101563 26.59910156 -26.92203125 26.19820312 -25.8515625 25.78515625 C-16.56295502 22.05477837 -7.16204993 17.95008978 -1.78125 8.96484375 C-0.62317937 6.05229612 -0.35748746 3.09822464 0 0 Z " fill="#31322F" transform="translate(31,86)"/>
<path d="M0 0 C1.98 0.66 3.96 1.32 6 2 C5.01 2.495 5.01 2.495 4 3 C4 3.66 4 4.32 4 5 C3.360625 5.12375 2.72125 5.2475 2.0625 5.375 C1.381875 5.58125 0.70125 5.7875 0 6 C-0.33 6.66 -0.66 7.32 -1 8 C-4.81984796 8.77811718 -7.26840331 9.24386556 -11 8 C-10.67 6.68 -10.34 5.36 -10 4 C-10.99 3.67 -11.98 3.34 -13 3 C-13 2.67 -13 2.34 -13 2 C-12.14535156 1.93941406 -11.29070313 1.87882813 -10.41015625 1.81640625 C-8.75306641 1.69072266 -8.75306641 1.69072266 -7.0625 1.5625 C-5.96035156 1.48128906 -4.85820313 1.40007812 -3.72265625 1.31640625 C-1.08890097 1.29581916 -1.08890097 1.29581916 0 0 Z " fill="#FAFBFB" transform="translate(73,141)"/>
<path d="M0 0 C3.63 0 7.26 0 11 0 C11 0.66 11 1.32 11 2 C8.03 2 5.06 2 2 2 C2 2.99 2 3.98 2 5 C4.64 5 7.28 5 10 5 C10 5.99 10 6.98 10 8 C7.36 8 4.72 8 2 8 C2 9.65 2 11.3 2 13 C4.97 13 7.94 13 11 13 C11 13.66 11 14.32 11 15 C7.37 15 3.74 15 0 15 C0 10.05 0 5.1 0 0 Z " fill="#509483" transform="translate(47,150)"/>
<path d="M0 0 C2.97 0 5.94 0 9 0 C10 3 10 3 9 6 C9.66 6 10.32 6 11 6 C10.67 8.31 10.34 10.62 10 13 C9.67 12.34 9.34 11.68 9 11 C6.03 11 3.06 11 0 11 C0 9.35 0 7.7 0 6 C2.64 6 5.28 6 8 6 C8 5.01 8 4.02 8 3 C5.36 3 2.72 3 0 3 C0 2.01 0 1.02 0 0 Z " fill="#E0F7F5" transform="translate(49,152)"/>
<path d="M0 0 C0.33 0 0.66 0 1 0 C0.95875 1.216875 0.9175 2.43375 0.875 3.6875 C0.84419069 6.60924975 0.96431191 7.92505501 2.25 10.625 C2.4975 11.40875 2.745 12.1925 3 13 C1.125 16.3125 1.125 16.3125 -1 19 C-2.65 18.67 -4.3 18.34 -6 18 C-5.55397709 11.30965634 -2.92654458 5.97187878 0 0 Z " fill="#2C8D79" transform="translate(83,123)"/>
<path d="M0 0 C2.475 0.495 2.475 0.495 5 1 C5.66 2.98 6.32 4.96 7 7 C7.99 7 8.98 7 10 7 C11.1577506 10.47325181 11.06866652 13.36067448 11 17 C9.68 17 8.36 17 7 17 C7.33 15.68 7.66 14.36 8 13 C7.38640625 12.91363281 6.7728125 12.82726562 6.140625 12.73828125 C4 12 4 12 2.734375 10.29296875 C2.40953125 9.59816406 2.0846875 8.90335938 1.75 8.1875 C1.41484375 7.50042969 1.0796875 6.81335938 0.734375 6.10546875 C0 4 0 4 0 0 Z " fill="#218A74" transform="translate(110,118)"/>
<path d="M0 0 C3.48763093 1.74381547 6.03368051 3.52806709 9 6 C9 4.02 9 2.04 9 0 C9.66 0 10.32 0 11 0 C11 4.95 11 9.9 11 15 C10.34 15 9.68 15 9 15 C8.7525 14.0925 8.505 13.185 8.25 12.25 C6.96018658 8.89648511 5.68028958 7.32291764 3 5 C2.67 8.3 2.34 11.6 2 15 C1.34 15 0.68 15 0 15 C0 10.05 0 5.1 0 0 Z " fill="#398773" transform="translate(97,150)"/>
<path d="M0 0 C2.97 0.495 2.97 0.495 6 1 C3 3 3 3 1 3 C1 7.62 1 12.24 1 17 C0.01 15.68 -0.98 14.36 -2 13 C-2.33 12.67 -2.66 12.34 -3 12 C-3.33 13.65 -3.66 15.3 -4 17 C-4.66 16.67 -5.32 16.34 -6 16 C-6 12.37 -6 8.74 -6 5 C-6.99 4.67 -7.98 4.34 -9 4 C-7.68 3.34 -6.36 2.68 -5 2 C-4.67 2.99 -4.34 3.98 -4 5 C-3.01 5 -2.02 5 -1 5 C-0.67 3.35 -0.34 1.7 0 0 Z " fill="#E6F7F4" transform="translate(134,147)"/>
<path d="M0 0 C0.8971875 0.433125 0.8971875 0.433125 1.8125 0.875 C2.1425 1.865 2.4725 2.855 2.8125 3.875 C1.91724609 4.24431641 1.91724609 4.24431641 1.00390625 4.62109375 C-1.5425632 6.07816451 -2.60874956 7.52595603 -4.25 9.9375 C-6.8598869 13.76579563 -6.8598869 13.76579563 -10.1875 14.875 C-10.69287432 9.56856959 -9.49405751 7.00819688 -6.1875 2.875 C-3.04041558 -0.17373803 -3.04041558 -0.17373803 0 0 Z " fill="#CBCBC8" transform="translate(87.1875,66.125)"/>
<path d="M0 0 C2.4375 0.6875 2.4375 0.6875 5 2 C5.8125 4.625 5.8125 4.625 6 7 C4.02 7.99 4.02 7.99 2 9 C2.66 7.02 3.32 5.04 4 3 C3.34 3 2.68 3 2 3 C1.773125 3.556875 1.54625 4.11375 1.3125 4.6875 C-0.38617978 7.68041199 -2.42072687 9.73527237 -5 12 C-5.99 12 -6.98 12 -8 12 C-7.58388059 7.1452735 -5.54108048 5.19560921 -2 2 C-1.34 1.34 -0.68 0.68 0 0 Z " fill="#E9E9E6" transform="translate(59,75)"/>
<path d="M0 0 C0 0.66 0 1.32 0 2 C-2.64 2.66 -5.28 3.32 -8 4 C-8.20970559 8.14093698 -8.20970559 8.14093698 -7 12 C-3.97065509 12.65772428 -3.97065509 12.65772428 -1 13 C-1 11.02 -1 9.04 -1 7 C-0.34 7 0.32 7 1 7 C1 9.64 1 12.28 1 15 C-0.43655854 15.08131463 -1.8744483 15.13933559 -3.3125 15.1875 C-4.51326172 15.23970703 -4.51326172 15.23970703 -5.73828125 15.29296875 C-8 15 -8 15 -9.765625 13.76953125 C-12.04897752 10.49624424 -11.62498611 6.8138357 -11 3 C-8.09101288 -0.839863 -4.52660491 -0.26115028 0 0 Z " fill="#418A78" transform="translate(179,150)"/>
<path d="M0 0 C0.66 0 1.32 0 2 0 C2.66 5.28 3.32 10.56 4 16 C3.34 16.33 2.68 16.66 2 17 C1.34 16.67 0.68 16.34 0 16 C0 15.34 0 14.68 0 14 C-1.32 14 -2.64 14 -4 14 C-3.38029501 4.19156581 -3.38029501 4.19156581 0 0 Z " fill="#1B8972" transform="translate(151,112)"/>
<path d="M0 0 C2.4375 0.875 2.4375 0.875 4.4375 3.875 C3.4475 4.205 2.4575 4.535 1.4375 4.875 C0.34583725 6.80830603 0.34583725 6.80830603 -0.5625 8.875 C-1.2225 9.535 -1.8825 10.195 -2.5625 10.875 C-4.6875 10.5 -4.6875 10.5 -6.5625 9.875 C-5.9625 3.515 -5.9625 3.515 -4.3125 0.875 C-2.5625 -0.125 -2.5625 -0.125 0 0 Z " fill="#141511" transform="translate(43.5625,81.125)"/>
<path d="M0 0 C0.33 0 0.66 0 1 0 C1.05784708 4.12494151 1.09354407 8.24977944 1.125 12.375 C1.15013672 14.1384375 1.15013672 14.1384375 1.17578125 15.9375 C1.18222656 17.05898437 1.18867187 18.18046875 1.1953125 19.3359375 C1.20578613 20.37282715 1.21625977 21.4097168 1.22705078 22.47802734 C1 25 1 25 -1 27 C-3.15478516 27.22705078 -3.15478516 27.22705078 -5.7890625 27.1953125 C-6.73007813 27.18886719 -7.67109375 27.18242187 -8.640625 27.17578125 C-9.62546875 27.15902344 -10.6103125 27.14226562 -11.625 27.125 C-12.61757813 27.11597656 -13.61015625 27.10695312 -14.6328125 27.09765625 C-17.08878134 27.07404116 -19.54427168 27.04110799 -22 27 C-22 26.67 -22 26.34 -22 26 C-17.38 25.67 -12.76 25.34 -8 25 C-8 24.34 -8 23.68 -8 23 C-7.34 23 -6.68 23 -6 23 C-5.67 22.01 -5.34 21.02 -5 20 C-4.67 20.66 -4.34 21.32 -4 22 C-3.01 22 -2.02 22 -1 22 C-0.67 14.74 -0.34 7.48 0 0 Z " fill="#5EAA9B" transform="translate(72,115)"/>
<path d="M0 0 C0.99 1.32 1.98 2.64 3 4 C2.67 4.66 2.34 5.32 2 6 C-0.97 5.505 -0.97 5.505 -4 5 C-4 20.84 -4 36.68 -4 53 C-4.33 53 -4.66 53 -5 53 C-5.19348574 46.21932958 -5.37092005 39.43837643 -5.53710938 32.65698242 C-5.59556952 30.34926815 -5.65772716 28.0416445 -5.72363281 25.73413086 C-5.81763431 22.42057798 -5.89840789 19.10692852 -5.9765625 15.79296875 C-6.00875885 14.7585112 -6.0409552 13.72405365 -6.0741272 12.6582489 C-6.09429901 11.6974794 -6.11447083 10.7367099 -6.13525391 9.74682617 C-6.15746002 8.90077316 -6.17966614 8.05472015 -6.20254517 7.18302917 C-6 5 -6 5 -4 2 C-2.68 2 -1.36 2 0 2 C0 1.34 0 0.68 0 0 Z " fill="#B5EADE" transform="translate(135,87)"/>
<path d="M0 0 C0.33 0.66 0.66 1.32 1 2 C2.65 2.33 4.3 2.66 6 3 C6 7.29 6 11.58 6 16 C5.67 16 5.34 16 5 16 C5 12.7 5 9.4 5 6 C2.39393412 7.30303294 2.08777981 8.31680981 1 11 C0.61709538 12.99110401 0.27395385 14.99100513 0 17 C-0.66 16.67 -1.32 16.34 -2 16 C-2.05449838 14.27119018 -2.09301688 12.54187288 -2.125 10.8125 C-2.14820313 9.84957031 -2.17140625 8.88664062 -2.1953125 7.89453125 C-1.9913544 4.87187222 -1.26874632 2.73230015 0 0 Z " fill="#379380" transform="translate(148,106)"/>
<path d="M0 0 C2.75026417 -0.05404449 5.49946203 -0.09369306 8.25 -0.125 C9.02730469 -0.14175781 9.80460937 -0.15851563 10.60546875 -0.17578125 C17.72431144 -0.23662606 17.72431144 -0.23662606 21 2 C21 2.66 21 3.32 21 4 C14.73 4 8.46 4 2 4 C1.34 2.68 0.68 1.36 0 0 Z " fill="#1B8C76" transform="translate(101,136)"/>
<path d="M0 0 C0.33 0 0.66 0 1 0 C1.07347656 1.13888672 1.07347656 1.13888672 1.1484375 2.30078125 C1.22320312 3.29464844 1.29796875 4.28851563 1.375 5.3125 C1.44460937 6.29863281 1.51421875 7.28476563 1.5859375 8.30078125 C1.83865472 11.21528433 1.83865472 11.21528433 4 14 C4 10.7 4 7.4 4 4 C4.99 3.67 5.98 3.34 7 3 C6.938125 4.2375 6.87625 5.475 6.8125 6.75 C6.79637174 9.78211302 6.89348977 10.82248296 8.5 13.5 C8.995 13.995 9.49 14.49 10 15 C9.34 15 8.68 15 8 15 C7.67 15.66 7.34 16.32 7 17 C4.525 16.01 4.525 16.01 2 15 C1.67 15.99 1.34 16.98 1 18 C0.01 17.67 -0.98 17.34 -2 17 C-2 16.34 -2 15.68 -2 15 C-1.34 15 -0.68 15 0 15 C0 10.05 0 5.1 0 0 Z " fill="#D6EDE9" transform="translate(108,150)"/>
<path d="M0 0 C4.29 0 8.58 0 13 0 C13 0.66 13 1.32 13 2 C11.35 2 9.7 2 8 2 C8 6.29 8 10.58 8 15 C7.01 15 6.02 15 5 15 C5 10.71 5 6.42 5 2 C3.35 2 1.7 2 0 2 C0 1.34 0 0.68 0 0 Z " fill="#529382" transform="translate(30,150)"/>
<path d="M0 0 C0 0.66 0 1.32 0 2 C-1.11375 2.12375 -2.2275 2.2475 -3.375 2.375 C-7.03103677 2.6465813 -7.03103677 2.6465813 -9 5 C-8.81242938 8.82564665 -8.81242938 8.82564665 -7 12 C-4.67182036 12.36760731 -2.3381615 12.70241581 0 13 C0 13.66 0 14.32 0 15 C-2.8580389 15.23816991 -5.19811145 15.42242213 -8 15 C-11.02791041 12.42627616 -11.86162709 10.84753406 -12.5 6.9375 C-12 4 -12 4 -10.5 1.625 C-6.86748926 -0.73613198 -4.28156703 -0.2854378 0 0 Z " fill="#438C7A" transform="translate(74,150)"/>
<path d="M0 0 C0.33 1.98 0.66 3.96 1 6 C1.99 6.33 2.98 6.66 4 7 C4 6.34 4 5.68 4 5 C4.66 5 5.32 5 6 5 C5.67 6.32 5.34 7.64 5 9 C3.35 9.33 1.7 9.66 0 10 C-0.66 8.02 -1.32 6.04 -2 4 C-4.31 5.65 -6.62 7.3 -9 9 C-10 8 -10 8 -10.0625 5.4375 C-10.041875 4.633125 -10.02125 3.82875 -10 3 C-9.34 3.66 -8.68 4.32 -8 5 C-7.236875 4.175 -6.47375 3.35 -5.6875 2.5 C-3 0 -3 0 0 0 Z " fill="#3C3D39" transform="translate(116,67)"/>
<path d="M0 0 C0.66 0 1.32 0 2 0 C5 3.46153846 5 3.46153846 5 6 C5.763125 5.195625 6.52625 4.39125 7.3125 3.5625 C10 1 10 1 13 0 C12.05055084 2.62924382 11.20158587 4.75003352 9.4375 6.9375 C7.60731895 9.56341194 7.35734122 11.85539725 7 15 C6.34 15 5.68 15 5 15 C4.9175 13.948125 4.835 12.89625 4.75 11.8125 C3.93735303 7.68154455 2.68897099 6.12267599 0 3 C0 2.01 0 1.02 0 0 Z " fill="#408D7A" transform="translate(184,150)"/>
<path d="M0 0 C0 0.33 0 0.66 0 1 C-1.15628906 1.14695312 -1.15628906 1.14695312 -2.3359375 1.296875 C-3.33882812 1.44640625 -4.34171875 1.5959375 -5.375 1.75 C-6.37273437 1.88921875 -7.37046875 2.0284375 -8.3984375 2.171875 C-11.12550343 2.72723882 -11.12550343 2.72723882 -12.19140625 4.94921875 C-12.45824219 5.62597656 -12.72507813 6.30273438 -13 7 C-14.66270287 8.33827304 -16.32916181 9.67189785 -18 11 C-18.33 11.99 -18.66 12.98 -19 14 C-19.99 14 -20.98 14 -22 14 C-20.72753138 8.06181311 -17.78484215 5.36401566 -13 2 C-8.68545287 -0.4338471 -4.84073926 -0.16409286 0 0 Z " fill="#CEEDE9" transform="translate(176,98)"/>
<path d="M0 0 C4.95 0 9.9 0 15 0 C15 0.66 15 1.32 15 2 C14.34 2 13.68 2 13 2 C13 2.66 13 3.32 13 4 C8.71 4 4.42 4 0 4 C0 2.68 0 1.36 0 0 Z " fill="#1D8D78" transform="translate(51,136)"/>
<path d="M0 0 C1.98 0 3.96 0 6 0 C6 8.25 6 16.5 6 25 C5.67 25 5.34 25 5 25 C4.67 17.74 4.34 10.48 4 3 C3.01 3 2.02 3 1 3 C1 8.61 1 14.22 1 20 C0.67 20 0.34 20 0 20 C0 13.4 0 6.8 0 0 Z " fill="#28806D" transform="translate(66,114)"/>
<path d="M0 0 C0.66 0 1.32 0 2 0 C2.33 0.99 2.66 1.98 3 3 C2.071875 3.8971875 2.071875 3.8971875 1.125 4.8125 C-2.39052333 8.43142107 -3.34411825 11.08088687 -4 16 C-4.12375 15.360625 -4.2475 14.72125 -4.375 14.0625 C-4.58125 13.381875 -4.7875 12.70125 -5 12 C-5.66 11.67 -6.32 11.34 -7 11 C-6.01 9.35 -5.02 7.7 -4 6 C-5.65 6 -7.3 6 -9 6 C-9 5.01 -9 4.02 -9 3 C-6.36 3 -3.72 3 -1 3 C-0.67 2.01 -0.34 1.02 0 0 Z " fill="#272724" transform="translate(81,65)"/>
<path d="M0 0 C0.99 0 1.98 0 3 0 C0.97810834 7.78121942 -1.38630407 15.39772708 -4 23 C-6 20 -6 20 -5.64453125 17.6171875 C-5.36996094 16.71226563 -5.09539062 15.80734375 -4.8125 14.875 C-4.52375 13.90691406 -4.235 12.93882813 -3.9375 11.94140625 C-2.66430284 7.94675015 -1.37856151 3.95969795 0 0 Z " fill="#3C3D3B" transform="translate(149,37)"/>
<path d="M0 0 C0.66 1.32 1.32 2.64 2 4 C0.22555028 6.24606427 -0.58352485 6.95081002 -3.48046875 7.29296875 C-4.82044922 7.24076172 -4.82044922 7.24076172 -6.1875 7.1875 C-7.53908203 7.14689453 -7.53908203 7.14689453 -8.91796875 7.10546875 C-9.60503906 7.07066406 -10.29210938 7.03585938 -11 7 C-7.57611908 3.17330957 -4.99275057 1.27721526 0 0 Z " fill="#EEF1EF" transform="translate(64,84)"/>
<path d="M0 0 C2.97 0 5.94 0 9 0 C9 0.66 9 1.32 9 2 C10.32 2.33 11.64 2.66 13 3 C12.67 3.99 12.34 4.98 12 6 C8.23620313 7.8066225 3.95861815 6.59379272 0 6 C1.32 4.68 2.64 3.36 4 2 C2.68 1.34 1.36 0.68 0 0 Z " fill="#1D8971" transform="translate(168,92)"/>
<path d="M0 0 C0.27457031 0.56847656 0.54914063 1.13695313 0.83203125 1.72265625 C4.45631178 8.78939722 8.2342376 13.78735548 15 18 C15.99 18.66 16.98 19.32 18 20 C13.51836559 20.39543833 10.75181191 19.47459934 7 17 C4.95866434 14.28659384 3 11.49234768 3 8 C2.01 8 1.02 8 0 8 C0 5.36 0 2.72 0 0 Z " fill="#DAF7F4" transform="translate(146,122)"/>
<path d="M0 0 C0.66 0 1.32 0 2 0 C2 0.66 2 1.32 2 2 C2.66 2.33 3.32 2.66 4 3 C3.360625 3.12375 2.72125 3.2475 2.0625 3.375 C1.381875 3.58125 0.70125 3.7875 0 4 C-0.33 4.66 -0.66 5.32 -1 6 C0.65 5.34 2.3 4.68 4 4 C3.34 5.32 2.68 6.64 2 8 C0.8553125 7.938125 0.8553125 7.938125 -0.3125 7.875 C-3.22718416 7.77919176 -3.22718416 7.77919176 -6 10 C-7.32 10 -8.64 10 -10 10 C-10.33 9.01 -10.66 8.02 -11 7 C-10.34 6.67 -9.68 6.34 -9 6 C-9 6.99 -9 7.98 -9 9 C-6.21922827 6.9144212 -3.98472088 4.98079196 -1.8125 2.25 C-1.214375 1.5075 -0.61625 0.765 0 0 Z " fill="#1F1F1C" transform="translate(93,72)"/>
<path d="M0 0 C2.125 0.375 2.125 0.375 4 1 C3.49396008 3.16874252 3.00016187 4.99967627 2 7 C4.64 6.67 7.28 6.34 10 6 C8.375 8 8.375 8 6 10 C2.85477278 10.31452272 0.84083641 10.42041821 -2 9 C-2 6 -2 6 0 3.8125 C0.66 3.214375 1.32 2.61625 2 2 C1.34 2 0.68 2 0 2 C-0.33 2.99 -0.66 3.98 -1 5 C-1.33 4.01 -1.66 3.02 -2 2 C-1.34 1.34 -0.68 0.68 0 0 Z " fill="#191917" transform="translate(187,52)"/>
<path d="M0 0 C0.66 0 1.32 0 2 0 C2 4.29 2 8.58 2 13 C4.97 13 7.94 13 11 13 C11 13.66 11 14.32 11 15 C7.37 15 3.74 15 0 15 C0 10.05 0 5.1 0 0 Z " fill="#448273" transform="translate(135,150)"/>
<path d="M0 0 C0.66 0 1.32 0 2 0 C2 2.31 2 4.62 2 7 C2.99 6.67 3.98 6.34 5 6 C5.33 4.35 5.66 2.7 6 1 C6.66 1.33 7.32 1.66 8 2 C8.33 1.34 8.66 0.68 9 0 C9.66 0 10.32 0 11 0 C10.34 1.32 9.68 2.64 9 4 C8.34 4 7.68 4 7 4 C7 5.32 7 6.64 7 8 C3.42355152 9.2380014 0.66305234 8.74926071 -3 8 C-2.67 7.401875 -2.34 6.80375 -2 6.1875 C-0.79212012 3.94613529 -0.79212012 3.94613529 -1 1 C-0.67 0.67 -0.34 0.34 0 0 Z " fill="#555652" transform="translate(178,54)"/>
<path d="M0 0 C-0.33 0.66 -0.66 1.32 -1 2 C-1.99 2 -2.98 2 -4 2 C-4 3.98 -4 5.96 -4 8 C-5.32 8 -6.64 8 -8 8 C-8 6.68 -8 5.36 -8 4 C-8.99 4 -9.98 4 -11 4 C-8.97717134 -2.06848598 -5.42392029 -1.02338119 0 0 Z " fill="#F6FAFC" transform="translate(182,154)"/>
<path d="M0 0 C4.21145799 3.66804405 4.80633543 6.34083645 5.203125 11.7890625 C5.21859375 12.72492188 5.2340625 13.66078125 5.25 14.625 C5.27578125 15.56601563 5.3015625 16.50703125 5.328125 17.4765625 C5 20 5 20 2 23 C2.495 14.09 2.495 14.09 3 5 C2.01 4.67 1.02 4.34 0 4 C0 2.68 0 1.36 0 0 Z " fill="#3D8F7F" transform="translate(192,103)"/>
<path d="M0 0 C1 4 1 4 -0.0625 5.8125 C-2 7 -2 7 -5.1875 6.6875 C-6.115625 6.460625 -7.04375 6.23375 -8 6 C-8 5.34 -8 4.68 -8 4 C-10.31 3.67 -12.62 3.34 -15 3 C-15 2.67 -15 2.34 -15 2 C-10.05 1.34 -5.1 0.68 0 0 Z " fill="#DBF0EC" transform="translate(182,140)"/>
<path d="M0 0 C0.66 0.33 1.32 0.66 2 1 C1.67 1.66 1.34 2.32 1 3 C1.66 3 2.32 3 3 3 C2 6 2 6 0.5 7.3125 C-1.60504861 9.68067968 -1.65720173 11.91481553 -2 15 C-2.99 15 -3.98 15 -5 15 C-5 13.68 -5 12.36 -5 11 C-5.66 10.67 -6.32 10.34 -7 10 C-6.21625 9.0925 -5.4325 8.185 -4.625 7.25 C-2.69947504 4.94809764 -1.17794259 2.78422793 0 0 Z " fill="#20201E" transform="translate(54,73)"/>
<path d="M0 0 C1.65 0 3.3 0 5 0 C4.51917969 0.39832031 4.03835937 0.79664063 3.54296875 1.20703125 C1.62608175 3.43450247 1.52258357 4.78834669 1.3125 7.6875 C1.24675781 8.49574219 1.18101562 9.30398437 1.11328125 10.13671875 C1.07589844 10.75160156 1.03851563 11.36648437 1 12 C-0.65 11.67 -2.3 11.34 -4 11 C-4.33 8.36 -4.66 5.72 -5 3 C-4.01 3 -3.02 3 -2 3 C-1.67 3.66 -1.34 4.32 -1 5 C-0.67 3.35 -0.34 1.7 0 0 Z " fill="#E4FBF9" transform="translate(167,150)"/>
<path d="M0 0 C3.63 0 7.26 0 11 0 C11 0.66 11 1.32 11 2 C8.03 2 5.06 2 2 2 C2.33 2.99 2.66 3.98 3 5 C5.97 5.495 5.97 5.495 9 6 C9 6.33 9 6.66 9 7 C6.36 7 3.72 7 1 7 C0.67 8.32 0.34 9.64 0 11 C0 7.37 0 3.74 0 0 Z " fill="#31806F" transform="translate(47,150)"/>
<path d="M0 0 C7.04971909 1.19995219 10.97464576 5.09999473 16 10 C12.47967572 10 11.5614657 9.29648649 9 7 C9 6.34 9 5.68 9 5 C7.02463255 5.34786708 7.02463255 5.34786708 5 6 C4.67 6.66 4.34 7.32 4 8 C2.68 7.67 1.36 7.34 0 7 C0.99 6.67 1.98 6.34 3 6 C3 5.01 3 4.02 3 3 C2.01 2.67 1.02 2.34 0 2 C0 1.34 0 0.68 0 0 Z " fill="#308675" transform="translate(177,92)"/>
<path d="M0 0 C0.33 0.99 0.66 1.98 1 3 C0.43410156 3.19335938 -0.13179687 3.38671875 -0.71484375 3.5859375 C-1.81505859 3.97652344 -1.81505859 3.97652344 -2.9375 4.375 C-3.66839844 4.63023437 -4.39929688 4.88546875 -5.15234375 5.1484375 C-7.18682116 5.85271413 -7.18682116 5.85271413 -8 8 C-7.01 8 -6.02 8 -5 8 C-5 9.32 -5 10.64 -5 12 C-3.68 12.33 -2.36 12.66 -1 13 C-3.875 13.1875 -3.875 13.1875 -7 13 C-9.30019361 9.54970958 -9.43132515 8.05445642 -9 4 C-5.5647952 1.70986347 -4.014669 1.82157027 0 2 C0 1.34 0 0.68 0 0 Z " fill="#D4F7F3" transform="translate(179,150)"/>
<path d="M0 0 C5.53657294 -0.42589023 9.89665983 1.094753 15 3 C14.01 4.485 14.01 4.485 13 6 C12.01 6 11.02 6 10 6 C9.34 5.34 8.68 4.68 8 4 C6.68 4 5.36 4 4 4 C3.67 4.66 3.34 5.32 3 6 C1.5 4.6875 1.5 4.6875 0 3 C0 2.01 0 1.02 0 0 Z " fill="#1D8972" transform="translate(157,133)"/>
<path d="M0 0 C0.99 0.33 1.98 0.66 3 1 C3 1.66 3 2.32 3 3 C3.66 3.33 4.32 3.66 5 4 C-0.35045802 6.43290754 -5.19972136 6.60002882 -11 6 C-14.1875 4.5 -14.1875 4.5 -16 3 C-13 2 -13 2 -10 3 C-10 3.66 -10 4.32 -10 5 C-6.7 4.34 -3.4 3.68 0 3 C0 2.01 0 1.02 0 0 Z " fill="#DCF5F1" transform="translate(176,129)"/>
<path d="M0 0 C0.103125 0.639375 0.20625 1.27875 0.3125 1.9375 C0.539375 2.618125 0.76625 3.29875 1 4 C1.99 4.33 2.98 4.66 4 5 C5.2077558 8.62326739 4.54311128 9.64146369 3 13 C2.34 12.67 1.68 12.34 1 12 C1 10.35 1 8.7 1 7 C0.01 7.495 0.01 7.495 -1 8 C-1.2165625 8.99 -1.2165625 8.99 -1.4375 10 C-1.623125 10.66 -1.80875 11.32 -2 12 C-2.99 12.33 -3.98 12.66 -5 13 C-3.58192622 8.52761347 -1.88695626 4.28853694 0 0 Z " fill="#338E7C" transform="translate(92,104)"/>
<path d="M0 0 C1.98 0 3.96 0 6 0 C5.484375 0.37125 4.96875 0.7425 4.4375 1.125 C-0.60885197 5.00680921 -5.20238105 8.83523823 -9 14 C-9.33 12.68 -9.66 11.36 -10 10 C-9.38125 9.773125 -8.7625 9.54625 -8.125 9.3125 C-5.76128418 8.14688017 -5.76128418 8.14688017 -5 5.4375 C-4.67 4.633125 -4.34 3.82875 -4 3 C-1.875 2.1875 -1.875 2.1875 0 2 C0 1.34 0 0.68 0 0 Z " fill="#DCF6F2" transform="translate(157,92)"/>
<path d="M0 0 C0 0.66 0 1.32 0 2 C-1.2684375 2.495 -1.2684375 2.495 -2.5625 3 C-7.0460593 5.60861632 -9.73771678 9.03985723 -13 13 C-13.66 13.66 -14.32 14.32 -15 15 C-15.33 14.01 -15.66 13.02 -16 12 C-14.56665422 10.37133456 -13.12817021 8.74719006 -11.6875 7.125 C-10.88699219 6.22007813 -10.08648437 5.31515625 -9.26171875 4.3828125 C-6.02628505 0.97415178 -4.79602563 0 0 0 Z " fill="#2A2A29" transform="translate(36,46)"/>
<path d="M0 0 C2.5625 0.3125 2.5625 0.3125 4.375 1.5 C5.92928206 3.87232525 5.78787188 5.53291345 5.5625 8.3125 C4.5725 8.8075 4.5725 8.8075 3.5625 9.3125 C3.5625 7.6625 3.5625 6.0125 3.5625 4.3125 C2.2425 4.3125 0.9225 4.3125 -0.4375 4.3125 C-1.0975 4.3125 -1.7575 4.3125 -2.4375 4.3125 C-2.7675 5.9625 -3.0975 7.6125 -3.4375 9.3125 C-3.7675 9.3125 -4.0975 9.3125 -4.4375 9.3125 C-4.5625 5.9375 -4.5625 5.9375 -4.4375 2.3125 C-2.4375 0.3125 -2.4375 0.3125 0 0 Z " fill="#D4F2EE" transform="translate(121.4375,151.6875)"/>
<path d="M0 0 C2.475 0.99 2.475 0.99 5 2 C5.20086443 5.71599191 5.1519437 6.77208445 3 10 C2.01 9.67 1.02 9.34 0 9 C0 6.03 0 3.06 0 0 Z " fill="#198D73" transform="translate(99,92)"/>
<path d="M0 0 C0.66 0.99 1.32 1.98 2 3 C1.35546875 6.06640625 1.35546875 6.06640625 0.1875 9.5625 C-0.19019531 10.71878906 -0.56789062 11.87507813 -0.95703125 13.06640625 C-2 16 -2 16 -3 18 C-3.66 18 -4.32 18 -5 18 C-3.75971762 11.82777121 -2.10396411 5.93317878 0 0 Z " fill="#363533" transform="translate(138,71)"/>
<path d="M0 0 C0.66 0 1.32 0 2 0 C2.33 1.98 2.66 3.96 3 6 C3.99 6.33 4.98 6.66 6 7 C5 8 5 8 2.625 8.25 C0 8 0 8 -1.8125 6.6875 C-3 5 -3 5 -3 2 C-2.01 2 -1.02 2 0 2 C0 1.34 0 0.68 0 0 Z " fill="#E6F8F6" transform="translate(153,155)"/>
<path d="M0 0 C1.32 0.66 2.64 1.32 4 2 C3.01 2 2.02 2 1 2 C1 2.66 1 3.32 1 4 C1.66 4.33 2.32 4.66 3 5 C2.67 5.66 2.34 6.32 2 7 C1.34 7 0.68 7 0 7 C0 7.66 0 8.32 0 9 C-1.65 9.33 -3.3 9.66 -5 10 C-4.34 9.67 -3.68 9.34 -3 9 C-2.34786708 6.97536745 -2.34786708 6.97536745 -2 5 C-2.66 5 -3.32 5 -4 5 C-4.33 5.66 -4.66 6.32 -5 7 C-5 6.01 -5 5.02 -5 4 C-4.01 4 -3.02 4 -2 4 C-1.34 2.68 -0.68 1.36 0 0 Z " fill="#E8E8E6" transform="translate(124,67)"/>
<path d="M0 0 C0.33 0.66 0.66 1.32 1 2 C1.99 1.67 2.98 1.34 4 1 C4.66 2.65 5.32 4.3 6 6 C7.98 6 9.96 6 12 6 C12 6.66 12 7.32 12 8 C7.59904164 8.16926763 4.87285627 8.00320152 1 6 C-1.19747131 6.29805007 -1.19747131 6.29805007 -3 7 C-2.34 6.67 -1.68 6.34 -1 6 C-1.0309375 4.7934375 -1.0309375 4.7934375 -1.0625 3.5625 C-1 1 -1 1 0 0 Z " fill="#DDF5F3" transform="translate(126,135)"/>
<path d="M0 0 C0.66 0 1.32 0 2 0 C2 4.95 2 9.9 2 15 C1.34 15 0.68 15 0 15 C0 12.36 0 9.72 0 7 C-1.98 7 -3.96 7 -6 7 C-6 6.67 -6 6.34 -6 6 C-4.02 6 -2.04 6 0 6 C0 4.02 0 2.04 0 0 Z " fill="#2D836C" transform="translate(88,150)"/>
<path d="M0 0 C0.99 0.33 1.98 0.66 3 1 C2.38125 1.721875 1.7625 2.44375 1.125 3.1875 C-2.22797565 8.09806362 -2.35037902 14.23888766 -3 20 C-3.33 20 -3.66 20 -4 20 C-5.42915791 12.55905826 -4.86362796 7.57415765 -1 1 C-0.67 0.67 -0.34 0.34 0 0 Z " fill="#E0F8F5" transform="translate(33,100)"/>
<path d="M0 0 C0.99 1.32 1.98 2.64 3 4 C2.67 4.66 2.34 5.32 2 6 C-0.97 5.505 -0.97 5.505 -4 5 C-4 8.96 -4 12.92 -4 17 C-4.33 17 -4.66 17 -5 17 C-5.22211116 15.06403108 -5.42722992 13.12610672 -5.625 11.1875 C-5.74101562 10.10855469 -5.85703125 9.02960938 -5.9765625 7.91796875 C-6 5 -6 5 -4 2 C-2.68 2 -1.36 2 0 2 C0 1.34 0 0.68 0 0 Z " fill="#CAE9E3" transform="translate(135,87)"/>
<path d="M0 0 C2.39073149 2.93189994 3.84107307 5.72143288 5.1875 9.25 C5.53167969 10.14203125 5.87585938 11.0340625 6.23046875 11.953125 C6.48441406 12.62859375 6.73835938 13.3040625 7 14 C5.10546875 13.73828125 5.10546875 13.73828125 3 13 C1.98828125 11.29296875 1.98828125 11.29296875 1.3125 9.1875 C1.08175781 8.50042969 0.85101563 7.81335938 0.61328125 7.10546875 C0.41089844 6.41066406 0.20851563 5.71585937 0 5 C-0.21269531 4.27425781 -0.42539063 3.54851562 -0.64453125 2.80078125 C-0.76183594 2.20652344 -0.87914063 1.61226563 -1 1 C-0.67 0.67 -0.34 0.34 0 0 Z " fill="#38907F" transform="translate(106,97)"/>
<path d="M0 0 C0.66 0 1.32 0 2 0 C1.67 0.721875 1.34 1.44375 1 2.1875 C-0.00603529 5.01697427 -0.16977402 7.02895466 0 10 C-1 10 -2 10 -3 10 C-4.34136367 10.65035814 -5.67532254 11.3162955 -7 12 C-7.66 11.34 -8.32 10.68 -9 10 C-8.2575 9.46375 -7.515 8.9275 -6.75 8.375 C-3.82869713 5.85205661 -2.11140321 3.20350831 0 0 Z " fill="#353433" transform="translate(86,71)"/>
<path d="M0 0 C0.66 0.33 1.32 0.66 2 1 C1.01 2.32 0.02 3.64 -1 5 C-0.01 5 0.98 5 2 5 C2.33 4.34 2.66 3.68 3 3 C3 3.66 3 4.32 3 5 C3.66 5 4.32 5 5 5 C5 5.66 5 6.32 5 7 C1.37 7 -2.26 7 -6 7 C-4.77065985 3.31197956 -3.06140622 2.27643027 0 0 Z " fill="#1E1E1B" transform="translate(176,57)"/>
<path d="M0 0 C2.91765891 -0.10806144 5.83131125 -0.18732877 8.75 -0.25 C9.9875 -0.30027344 9.9875 -0.30027344 11.25 -0.3515625 C17.42297754 -0.45112665 17.42297754 -0.45112665 20.578125 2.015625 C21.28195313 2.99789062 21.28195313 2.99789062 22 4 C21.67 4.66 21.34 5.32 21 6 C19.948125 5.360625 18.89625 4.72125 17.8125 4.0625 C12.16659162 1.18359537 6.23022305 1.18994582 0 1 C0 0.67 0 0.34 0 0 Z " fill="#BDE4DE" transform="translate(166,91)"/>
<path d="M0 0 C2.125 0.375 2.125 0.375 4 1 C2.6875 4.4375 2.6875 4.4375 1 8 C0.01 8.33 -0.98 8.66 -2 9 C-2.125 5.625 -2.125 5.625 -2 2 C-1.34 1.34 -0.68 0.68 0 0 Z " fill="#71726E" transform="translate(41,81)"/>
<path d="M0 0 C6.27586207 -0.48275862 6.27586207 -0.48275862 9.4375 1.625 C11.39644605 4.602598 11.31785906 6.50355037 11 10 C10.34 9.67 9.68 9.34 9 9 C8.773125 8.21625 8.54625 7.4325 8.3125 6.625 C6.38022594 2.76045188 4.00219421 2.40817944 0 1 C0 0.67 0 0.34 0 0 Z " fill="#368874" transform="translate(118,150)"/>
<path d="M0 0 C0 0.66 0 1.32 0 2 C-1.27875 2.20625 -2.5575 2.4125 -3.875 2.625 C-6.07813968 3.08483533 -6.07813968 3.08483533 -8 4 C-9.61147442 6.99428144 -9.61147442 6.99428144 -10 10 C-10.33 10 -10.66 10 -11 10 C-11.48309179 3.59903382 -11.48309179 3.59903382 -9.4375 1.0625 C-6.19917389 -0.34907805 -3.49186021 -0.20145347 0 0 Z " fill="#398673" transform="translate(179,150)"/>
<path d="M0 0 C0.33 0.99 0.66 1.98 1 3 C-0.98 3.99 -0.98 3.99 -3 5 C-3 8.63 -3 12.26 -3 16 C-3.66 15.67 -4.32 15.34 -5 15 C-5 10.71 -5 6.42 -5 2 C-3.35 2 -1.7 2 0 2 C0 1.34 0 0.68 0 0 Z " fill="#E8FDFB" transform="translate(43,150)"/>
<path d="M0 0 C0.66 1.32 1.32 2.64 2 4 C1.34 4.66 0.68 5.32 0 6 C-0.71408334 7.98356483 -1.38617742 9.98315437 -2 12 C-2.99 11.34 -3.98 10.68 -5 10 C-4.34 10 -3.68 10 -3 10 C-3.0928125 8.63875 -3.0928125 8.63875 -3.1875 7.25 C-2.98327924 3.71017358 -2.35448165 2.55068845 0 0 Z " fill="#D3F0EB" transform="translate(194,155)"/>
<path d="M0 0 C2.97 0.495 2.97 0.495 6 1 C3 3 3 3 1 3 C1 7.62 1 12.24 1 17 C0.67 17 0.34 17 0 17 C-0.19436491 14.54203147 -0.3807742 12.08390706 -0.5625 9.625 C-0.61857422 8.92632812 -0.67464844 8.22765625 -0.73242188 7.5078125 C-1.11328125 2.2265625 -1.11328125 2.2265625 0 0 Z " fill="#D7F4EE" transform="translate(134,147)"/>
<path d="M0 0 C0.33 0.66 0.66 1.32 1 2 C1.66 2.33 2.32 2.66 3 3 C2.34 3 1.68 3 1 3 C1 8.28 1 13.56 1 19 C0.34 19 -0.32 19 -1 19 C-1.02683987 16.02077407 -1.04676037 13.04178705 -1.0625 10.0625 C-1.07087891 9.21236328 -1.07925781 8.36222656 -1.08789062 7.48632812 C-1.09111328 6.67744141 -1.09433594 5.86855469 -1.09765625 5.03515625 C-1.10289307 4.2862915 -1.10812988 3.53742676 -1.11352539 2.76586914 C-1 1 -1 1 0 0 Z " fill="#248672" transform="translate(190,105)"/>
<path d="M0 0 C0.99 0.33 1.98 0.66 3 1 C2.04956626 2.33897583 1.08940853 3.67105427 0.125 5 C-0.40867187 5.7425 -0.94234375 6.485 -1.4921875 7.25 C-2.23855469 8.11625 -2.23855469 8.11625 -3 9 C-3.66 9 -4.32 9 -5 9 C-4.67 7.02 -4.34 5.04 -4 3 C-3.34 3 -2.68 3 -2 3 C-1.34 2.01 -0.68 1.02 0 0 Z " fill="#E2E2E0" transform="translate(90,71)"/>
<path d="M0 0 C1.65 0 3.3 0 5 0 C5 4.29 5 8.58 5 13 C5.99 13.33 6.98 13.66 8 14 C6.35 14.33 4.7 14.66 3 15 C3.33 10.38 3.66 5.76 4 1 C2.68 1.33 1.36 1.66 0 2 C0 1.34 0 0.68 0 0 Z " fill="#E7FDFA" transform="translate(30,152)"/>
<path d="M0 0 C0.99 0.33 1.98 0.66 3 1 C2.04956626 2.33897583 1.08940853 3.67105427 0.125 5 C-0.40867188 5.7425 -0.94234375 6.485 -1.4921875 7.25 C-1.98976562 7.8275 -2.48734375 8.405 -3 9 C-3.66 9 -4.32 9 -5 9 C-5.33 8.01 -5.66 7.02 -6 6 C-5.34 6 -4.68 6 -4 6 C-3.67 5.01 -3.34 4.02 -3 3 C-2.34 3 -1.68 3 -1 3 C-0.67 2.01 -0.34 1.02 0 0 Z " fill="#E3F5F5" transform="translate(194,147)"/>
<path d="M0 0 C0.83907952 2.62212351 0.98045306 4.51799401 0.875 7.3125 C0.98686468 10.61250797 1.24835232 11.9582426 2.5625 14.8125 C3.036875 15.864375 3.51125 16.91625 4 18 C3.67 18.66 3.34 19.32 3 20 C-0.41480101 14.13081076 -1.81811639 9.79975427 -1 3 C-0.67 2.01 -0.34 1.02 0 0 Z " fill="#C8EFEA" transform="translate(38,109)"/>
<path d="M0 0 C0.33 0 0.66 0 1 0 C1 2.31 1 4.62 1 7 C0.01 7.33 -0.98 7.66 -2 8 C-2.33 9.98 -2.66 11.96 -3 14 C-4.51588353 9.4523494 -2.83701808 5.81353917 -0.875 1.5625 C-0.58625 1.046875 -0.2975 0.53125 0 0 Z " fill="#25907C" transform="translate(151,112)"/>
<path d="M0 0 C0.99 0.66 1.98 1.32 3 2 C2.34 3.98 1.68 5.96 1 8 C0.01 8 -0.98 8 -2 8 C-2.125 5.125 -2.125 5.125 -2 2 C-1.34 1.34 -0.68 0.68 0 0 Z " fill="#F0F1EC" transform="translate(182,53)"/>
<path d="M0 0 C0.99 0 1.98 0 3 0 C3.33 1.98 3.66 3.96 4 6 C3.34 6 2.68 6 2 6 C1.67 7.32 1.34 8.64 1 10 C0.34 9.34 -0.32 8.68 -1 8 C-1.33 8 -1.66 8 -2 8 C-2.20086443 4.28400809 -2.1519437 3.22791555 0 0 Z " fill="#1A866F" transform="translate(33,115)"/>
<path d="M0 0 C1 3 1 3 -0.25 5.6875 C-0.8275 6.450625 -1.405 7.21375 -2 8 C-2.99 8 -3.98 8 -5 8 C-5 7.34 -5 6.68 -5 6 C-5.66 5.67 -6.32 5.34 -7 5 C-6.34 3.68 -5.68 2.36 -5 1 C-4.67 1.99 -4.34 2.98 -4 4 C-3.34 4 -2.68 4 -2 4 C-1.34 2.68 -0.68 1.36 0 0 Z " fill="#238773" transform="translate(99,103)"/>
<path d="M0 0 C0.99 0.33 1.98 0.66 3 1 C2.1875 3.9375 2.1875 3.9375 1 7 C0.01 7.33 -0.98 7.66 -2 8 C-2.125 5.125 -2.125 5.125 -2 2 C-1.34 1.34 -0.68 0.68 0 0 Z " fill="#F2F2F0" transform="translate(79,73)"/>
<path d="M0 0 C0.33 0.99 0.66 1.98 1 3 C-0.14453125 5.0078125 -0.14453125 5.0078125 -1.8125 7.125 C-2.62654297 8.18074219 -2.62654297 8.18074219 -3.45703125 9.2578125 C-5 11 -5 11 -7 12 C-5.45052978 7.60983438 -3.33033996 3.33033996 0 0 Z " fill="#DBDBD7" transform="translate(63,63)"/>
<path d="M0 0 C-0.75 6.75 -0.75 6.75 -3 9 C-3.33 7.35 -3.66 5.7 -4 4 C-4.99 3.67 -5.98 3.34 -7 3 C-4.74624683 0.74624683 -3.20799182 0 0 0 Z " fill="#252523" transform="translate(142,64)"/>
<path d="M0 0 C3.37705625 0.53725895 6.696686 1.11064623 10 2 C10 2.99 10 3.98 10 5 C7.98177083 4.96744792 5.96354167 4.93489583 3.9453125 4.90234375 C1.91814596 4.87350758 1.91814596 4.87350758 0 6 C0 4.02 0 2.04 0 0 Z " fill="#DDF4F1" transform="translate(150,146)"/>
<path d="M0 0 C0.33 1.32 0.66 2.64 1 4 C2.32 4.33 3.64 4.66 5 5 C4.67 5.66 4.34 6.32 4 7 C3.34 6.67 2.68 6.34 2 6 C2 6.66 2 7.32 2 8 C0.68 7.67 -0.64 7.34 -2 7 C-1.34 4.69 -0.68 2.38 0 0 Z " fill="#1E8A73" transform="translate(108,106)"/>
<path d="M0 0 C0.33 0.99 0.66 1.98 1 3 C-2.83314543 8.63697858 -2.83314543 8.63697858 -6.8125 9.875 C-7.8953125 9.936875 -7.8953125 9.936875 -9 10 C-8.2575 9.278125 -7.515 8.55625 -6.75 7.8125 C-4.30709485 5.31407427 -2.1318953 2.76356798 0 0 Z " fill="#D9F4F1" transform="translate(193,130)"/>
<path d="M0 0 C2.97 0.495 2.97 0.495 6 1 C6 1.66 6 2.32 6 3 C6.66 3 7.32 3 8 3 C8 4.65 8 6.3 8 8 C7.01 8.495 7.01 8.495 6 9 C5.566875 8.071875 5.13375 7.14375 4.6875 6.1875 C3.27961373 3.52815927 2.23876444 1.91894095 0 0 Z " fill="#E2F7F5" transform="translate(101,90)"/>
<path d="M0 0 C0.33 0 0.66 0 1 0 C1.4856661 7.40640809 1.4856661 7.40640809 -0.6875 10.0625 C-3.54680518 11.22167778 -5.09019806 10.88910615 -8 10 C-7.401875 9.731875 -6.80375 9.46375 -6.1875 9.1875 C-3.93395607 7.96414758 -2.57141964 7.02039668 -1 5 C-0.27802838 2.39388923 -0.27802838 2.39388923 0 0 Z " fill="#4B9382" transform="translate(162,154)"/>
<path d="M0 0 C0.70125 0.309375 1.4025 0.61875 2.125 0.9375 C5.08936657 2.03302678 7.87698108 2.56422992 11 3 C11.33 4.32 11.66 5.64 12 7 C7.39104317 5.68315519 3.85859765 3.84801255 0 1 C0 0.67 0 0.34 0 0 Z " fill="#398D7C" transform="translate(37,134)"/>
<path d="M0 0 C2.125 0.375 2.125 0.375 4 1 C3.49396008 3.16874252 3.00016187 4.99967627 2 7 C1.01 6.67 0.02 6.34 -1 6 C-0.01 4.68 0.98 3.36 2 2 C1.34 2 0.68 2 0 2 C-0.33 2.99 -0.66 3.98 -1 5 C-1.33 4.01 -1.66 3.02 -2 2 C-1.34 1.34 -0.68 0.68 0 0 Z " fill="#20201D" transform="translate(187,52)"/>
<path d="M0 0 C0.99 0 1.98 0 3 0 C1.515 5.445 1.515 5.445 0 11 C-2 8 -2 8 -1.7578125 5.95703125 C-1.171875 3.97135417 -0.5859375 1.98567708 0 0 Z " fill="#484846" transform="translate(149,37)"/>
<path d="M0 0 C1.65 1.65 3.3 3.3 5 5 C4.01 5.33 3.02 5.66 2 6 C1.67 7.65 1.34 9.3 1 11 C0.67 11 0.34 11 0 11 C0 7.37 0 3.74 0 0 Z " fill="#CAF3EC" transform="translate(99,154)"/>
<path d="M0 0 C0.66 0.33 1.32 0.66 2 1 C0.02 5.455 0.02 5.455 -2 10 C-4 7 -4 7 -4 4 C-2 1.8125 -2 1.8125 0 0 Z " fill="#DFF5F1" transform="translate(84,118)"/>
<path d="M0 0 C1.32 0.33 2.64 0.66 4 1 C4 5.29 4 9.58 4 14 C3.67 14 3.34 14 3 14 C3 10.7 3 7.4 3 4 C2.01 3.67 1.02 3.34 0 3 C0 2.01 0 1.02 0 0 Z " fill="#47A291" transform="translate(150,108)"/>
<path d="M0 0 C-2.00844092 4.92980953 -5.64105074 8.09403383 -10 11 C-8.73396788 6.69549079 -5.08358566 0 0 0 Z " fill="#3A8B79" transform="translate(159,95)"/>
<path d="M0 0 C1.0625 1.8125 1.0625 1.8125 2 4 C1.67 4.99 1.34 5.98 1 7 C-0.32 6.67 -1.64 6.34 -3 6 C-3 4.68 -3 3.36 -3 2 C-2.01 1.34 -1.02 0.68 0 0 Z " fill="#F2F2EF" transform="translate(48,84)"/>
<path d="M0 0 C0 1.98 0 3.96 0 6 C-3.16115776 4.63016497 -3.9927092 4.0109362 -6 1 C-4 0 -4 0 0 0 Z " fill="#E0F6F5" transform="translate(106,150)"/>
<path d="M0 0 C3.375 -0.125 3.375 -0.125 7 0 C9 2 9 2 9.1953125 3.9453125 C9.13020833 5.96354167 9.06510417 7.98177083 9 10 C8.67 10 8.34 10 8 10 C7.79375 8.88625 7.5875 7.7725 7.375 6.625 C6.38371699 2.73400805 6.38371699 2.73400805 2.875 1.5625 C1.92625 1.376875 0.9775 1.19125 0 1 C0 0.67 0 0.34 0 0 Z " fill="#29816C" transform="translate(153,151)"/>
<path d="M0 0 C0.625 2.375 0.625 2.375 1 5 C0.34 5.66 -0.32 6.32 -1 7 C-1.33 6.01 -1.66 5.02 -2 4 C-4.00016466 2.79117904 -4.00016466 2.79117904 -6 2 C-2.25 0 -2.25 0 0 0 Z " fill="#EEF5F5" transform="translate(188,146)"/>
<path d="M0 0 C2 3 2 3 2 5 C-3.28 5 -8.56 5 -14 5 C-14 4.67 -14 4.34 -14 4 C-7.565 3.505 -7.565 3.505 -1 3 C-0.67 2.01 -0.34 1.02 0 0 Z " fill="#C7F7ED" transform="translate(114,130)"/>
<path d="M0 0 C1.32 0.66 2.64 1.32 4 2 C3.01 4.31 2.02 6.62 1 9 C0.67 9 0.34 9 0 9 C-0.87890625 2.84765625 -0.87890625 2.84765625 -1 1 C-0.67 0.67 -0.34 0.34 0 0 Z " fill="#F6F7F4" transform="translate(34,83)"/>
<path d="M0 0 C1.98 0 3.96 0 6 0 C7.60080151 4.00200378 6.29279692 7.04556236 5 11 C4.87625 10.360625 4.7525 9.72125 4.625 9.0625 C4.41875 8.381875 4.2125 7.70125 4 7 C3.34 6.67 2.68 6.34 2 6 C2.99 4.35 3.98 2.7 5 1 C3.35 1 1.7 1 0 1 C0 0.67 0 0.34 0 0 Z " fill="#50504E" transform="translate(72,70)"/>
<path d="M0 0 C1.98 0 3.96 0 6 0 C6 2.31 6 4.62 6 7 C5.34 7 4.68 7 4 7 C4 5.35 4 3.7 4 2 C2.68 2 1.36 2 0 2 C0 1.34 0 0.68 0 0 Z " fill="#343431" transform="translate(125,69)"/>
<path d="M0 0 C0.33 0 0.66 0 1 0 C1.66 2.64 2.32 5.28 3 8 C1.68 8.33 0.36 8.66 -1 9 C-1.80967438 6.08517222 -2.21845993 4.53886783 -1.0625 1.6875 C-0.711875 1.130625 -0.36125 0.57375 0 0 Z " fill="#2E2E2D" transform="translate(143,57)"/>
<path d="M0 0 C0.66 0.66 1.32 1.32 2 2 C0.71937515 3.7074998 -0.61767557 5.37373596 -2 7 C-2.66 7 -3.32 7 -4 7 C-3.67 5.02 -3.34 3.04 -3 1 C-2.01 0.67 -1.02 0.34 0 0 Z " fill="#E7E8E3" transform="translate(166,57)"/>
<path d="M0 0 C0.33 0.99 0.66 1.98 1 3 C-0.29009643 3.50403768 -1.58213789 4.00309926 -2.875 4.5 C-3.95394531 4.91765625 -3.95394531 4.91765625 -5.0546875 5.34375 C-7 6 -7 6 -9 6 C-8.67 5.01 -8.34 4.02 -8 3 C-5.29120665 1.64560332 -2.99066732 1.93498549 0 2 C0 1.34 0 0.68 0 0 Z " fill="#C1E8E1" transform="translate(179,150)"/>
<path d="M0 0 C0.33 0 0.66 0 1 0 C1.08153933 1.58246707 1.13943557 3.16616273 1.1875 4.75 C1.23970703 6.07257813 1.23970703 6.07257813 1.29296875 7.421875 C0.94923684 10.44671583 -0.00227459 11.75583602 -2 14 C-2.04254356 12.00045254 -2.04080783 9.99958364 -2 8 C-1.67 7.67 -1.34 7.34 -1 7 C-0.63239269 4.67182036 -0.29758419 2.3381615 0 0 Z " fill="#B9E3DC" transform="translate(189,112)"/>
<path d="M0 0 C0.66 0.33 1.32 0.66 2 1 C1.67 2.65 1.34 4.3 1 6 C-0.65 5.01 -2.3 4.02 -4 3 C-2.68 2.01 -1.36 1.02 0 0 Z " fill="#F2F3F2" transform="translate(22,106)"/>
<path d="M0 0 C-1.25535985 3.76607955 -2.52883585 4.26441793 -6 6 C-6.99 6 -7.98 6 -9 6 C-9 5.34 -9 4.68 -9 4 C-2.25 0 -2.25 0 0 0 Z " fill="#2B2C29" transform="translate(23,104)"/>
<path d="M0 0 C-3.96 3.465 -3.96 3.465 -8 7 C-8.33 6.01 -8.66 5.02 -9 4 C-8.34 4 -7.68 4 -7 4 C-7 3.01 -7 2.02 -7 1 C-3.375 -1.125 -3.375 -1.125 0 0 Z " fill="#3A8E7D" transform="translate(48,100)"/>
<path d="M0 0 C1.9375 0.5625 1.9375 0.5625 4 2 C4.75 5.625 4.75 5.625 5 9 C3.35 7.68 1.7 6.36 0 5 C0.66 4.01 1.32 3.02 2 2 C1.34 2 0.68 2 0 2 C0 1.34 0 0.68 0 0 Z " fill="#EFEFED" transform="translate(26,81)"/>
<path d="M0 0 C1.32 0.33 2.64 0.66 4 1 C4.33 2.65 4.66 4.3 5 6 C3.02 6.99 3.02 6.99 1 8 C1.66 6.02 2.32 4.04 3 2 C2.34 2 1.68 2 1 2 C0.67 2.66 0.34 3.32 0 4 C0 2.68 0 1.36 0 0 Z " fill="#DBDCD8" transform="translate(60,76)"/>
<path d="M0 0 C0.268125 0.639375 0.53625 1.27875 0.8125 1.9375 C1.88667752 4.33131686 1.88667752 4.33131686 5 5 C4.360625 5.103125 3.72125 5.20625 3.0625 5.3125 C2.381875 5.539375 1.70125 5.76625 1 6 C0.67 6.99 0.34 7.98 0 9 C0 8.01 0 7.02 0 6 C-0.99 5.67 -1.98 5.34 -3 5 C-2.34 4.67 -1.68 4.34 -1 4 C-0.34786708 1.97536745 -0.34786708 1.97536745 0 0 Z " fill="#2B2C27" transform="translate(131,63)"/>
<path d="M0 0 C0.99 0 1.98 0 3 0 C3 0.99 3 1.98 3 3 C3.66 3 4.32 3 5 3 C4.34 4.32 3.68 5.64 3 7 C2.34 7 1.68 7 1 7 C0.67 4.69 0.34 2.38 0 0 Z " fill="#636361" transform="translate(148,61)"/>
<path d="M0 0 C1.32 0.33 2.64 0.66 4 1 C4 2.65 4 4.3 4 6 C3.01 6.495 3.01 6.495 2 7 C1.67 5.68 1.34 4.36 1 3 C0.01 3 -0.98 3 -2 3 C-1.34 2.01 -0.68 1.02 0 0 Z " fill="#222221" transform="translate(62,61)"/>
<path d="M0 0 C0.33 0 0.66 0 1 0 C1 4.95 1 9.9 1 15 C1.66 15.33 2.32 15.66 3 16 C2.01 16.33 1.02 16.66 0 17 C-1.54897985 13.9020403 -0.83239539 10.73783448 -0.5625 7.375 C-0.51029297 6.66859375 -0.45808594 5.9621875 -0.40429688 5.234375 C-0.27458793 3.48920013 -0.13795046 1.74454275 0 0 Z " fill="#BEEBE0" transform="translate(96,150)"/>
<path d="M0 0 C2 2 2 2 2 5 C1.34 5 0.68 5 0 5 C0 8.3 0 11.6 0 15 C-0.33 15 -0.66 15 -1 15 C-1.02703381 13.06257659 -1.04641125 11.12504521 -1.0625 9.1875 C-1.07410156 8.10855469 -1.08570312 7.02960938 -1.09765625 5.91796875 C-1 3 -1 3 0 0 Z " fill="#4C9787" transform="translate(31,107)"/>
<path d="M0 0 C0.66 0 1.32 0 2 0 C4 3 4 3 3.625 5.1875 C3.41875 5.785625 3.2125 6.38375 3 7 C2.01 6.67 1.02 6.34 0 6 C0 4.02 0 2.04 0 0 Z " fill="#188D75" transform="translate(104,100)"/>
<path d="M0 0 C1.98 0.99 3.96 1.98 6 3 C5.67 4.65 5.34 6.3 5 8 C2.5 5.6875 2.5 5.6875 0 3 C0 2.01 0 1.02 0 0 Z " fill="#D9F4EF" transform="translate(189,96)"/>
<path d="M0 0 C0.33 0 0.66 0 1 0 C2.35384615 7.38461538 2.35384615 7.38461538 0.5625 10.5 C0.046875 10.995 -0.46875 11.49 -1 12 C-2.09898702 8.70303895 -1.87124444 7.59505097 -1.0625 4.3125 C-0.86785156 3.50425781 -0.67320313 2.69601563 -0.47265625 1.86328125 C-0.31667969 1.24839844 -0.16070313 0.63351563 0 0 Z " fill="#3F403C" transform="translate(31,86)"/>
<path d="M0 0 C0.66 0.33 1.32 0.66 2 1 C1.34 1.61875 0.68 2.2375 0 2.875 C-2.2284549 4.75637427 -2.2284549 4.75637427 -2 7 C-3.32 6.67 -4.64 6.34 -6 6 C-2.25 1.125 -2.25 1.125 0 0 Z " fill="#EFEFED" transform="translate(33,48)"/>
<path d="M0 0 C1.32 1.65 2.64 3.3 4 5 C2.35 5.66 0.7 6.32 -1 7 C-1.33 5.35 -1.66 3.7 -2 2 C-1.34 2 -0.68 2 0 2 C0 1.34 0 0.68 0 0 Z " fill="#E9F5F4" transform="translate(62,160)"/>
<path d="M0 0 C1.65 0 3.3 0 5 0 C4.525625 0.350625 4.05125 0.70125 3.5625 1.0625 C1.32126175 3.84163543 1.32882342 6.5144717 1 10 C0.67 10 0.34 10 0 10 C-1.125 3.375 -1.125 3.375 0 0 Z " fill="#CCE7E4" transform="translate(167,150)"/>
<path d="M0 0 C0.99 0 1.98 0 3 0 C2.67 1.65 2.34 3.3 2 5 C-0.31 4.67 -2.62 4.34 -5 4 C-4.0409375 3.8453125 -4.0409375 3.8453125 -3.0625 3.6875 C-2.381875 3.460625 -1.70125 3.23375 -1 3 C-0.67 2.01 -0.34 1.02 0 0 Z " fill="#E2F8F4" transform="translate(73,146)"/>
<path d="M0 0 C2.4375 0.375 2.4375 0.375 5 1 C5.33 1.66 5.66 2.32 6 3 C5.01 3.99 4.02 4.98 3 6 C3 5.01 3 4.02 3 3 C2.01 3 1.02 3 0 3 C0 2.01 0 1.02 0 0 Z " fill="#198D73" transform="translate(110,118)"/>
<path d="M0 0 C0.66 0.33 1.32 0.66 2 1 C0.84414715 4.91211733 -0.35534962 7.8745041 -3 11 C-3.125 8.625 -3.125 8.625 -3 6 C-2.34 5.34 -1.68 4.68 -1 4 C-0.3574765 1.93125966 -0.3574765 1.93125966 0 0 Z " fill="#DEF7F5" transform="translate(96,91)"/>
<path d="M0 0 C0.66 0.66 1.32 1.32 2 2 C0.68 4.31 -0.64 6.62 -2 9 C-2.66 8.34 -3.32 7.68 -4 7 C-2.68 4.69 -1.36 2.38 0 0 Z " fill="#E7E7E5" transform="translate(53,71)"/>
<path d="M0 0 C0.66 0.66 1.32 1.32 2 2 C3.32 1.34 4.64 0.68 6 0 C4.63016497 3.16115776 4.0109362 3.9927092 1 6 C0 5 0 5 -0.0625 2.4375 C-0.041875 1.633125 -0.02125 0.82875 0 0 Z " fill="#21221E" transform="translate(106,70)"/>
<path d="M0 0 C2.0625 0.4375 2.0625 0.4375 4 1 C3.67 1.66 3.34 2.32 3 3 C2.01 3 1.02 3 0 3 C0 3.66 0 4.32 0 5 C-0.99 5 -1.98 5 -3 5 C-1.125 1.125 -1.125 1.125 0 0 Z " fill="#CDECE9" transform="translate(153,152)"/>
<path d="M0 0 C2.86724686 0.57344937 3.8614515 0.8614515 6 3 C4.02 3.66 2.04 4.32 0 5 C0 3.35 0 1.7 0 0 Z " fill="#2C8A77" transform="translate(98,136)"/>
<path d="M0 0 C0.33 0.66 0.66 1.32 1 2 C1.66 2 2.32 2 3 2 C4.0625 3.8125 4.0625 3.8125 5 6 C4.67 6.99 4.34 7.98 4 9 C0 4.5 0 4.5 0 0 Z " fill="#DAF2F1" transform="translate(155,122)"/>
<path d="M0 0 C2.79872437 2.52788007 4.45773019 4.20411134 5 8 C4.01 8 3.02 8 2 8 C1.34 5.36 0.68 2.72 0 0 Z " fill="#DDF7F4" transform="translate(184,104)"/>
<path d="M0 0 C0.33 0 0.66 0 1 0 C1.144375 0.763125 1.28875 1.52625 1.4375 2.3125 C1.9632594 5.08172908 1.9632594 5.08172908 3 8 C1.68 7.67 0.36 7.34 -1 7 C-0.67 4.69 -0.34 2.38 0 0 Z " fill="#2C2B2A" transform="translate(38,84)"/>
<path d="M0 0 C0.99 0.99 1.98 1.98 3 3 C-0.75 6 -0.75 6 -3 6 C-2.67 4.68 -2.34 3.36 -2 2 C-1.34 2 -0.68 2 0 2 C0 1.34 0 0.68 0 0 Z " fill="#E0E1DD" transform="translate(172,56)"/>
<path d="M0 0 C0.6875 1.75 0.6875 1.75 1 4 C-0.4375 6.25 -0.4375 6.25 -2 8 C-2.66 7.67 -3.32 7.34 -4 7 C-1.125 1.125 -1.125 1.125 0 0 Z " fill="#E6FBF9" transform="translate(199,147)"/>
<path d="M0 0 C0.33 0 0.66 0 1 0 C1.25 5.625 1.25 5.625 -1 9 C-1.66 9 -2.32 9 -3 9 C-2.01 6.03 -1.02 3.06 0 0 Z " fill="#37907E" transform="translate(83,123)"/>
<path d="M0 0 C0.99 0.33 1.98 0.66 3 1 C3 1.99 3 2.98 3 4 C1.35 4.33 -0.3 4.66 -2 5 C-1.125 1.125 -1.125 1.125 0 0 Z " fill="#139073" transform="translate(38,100)"/>
</svg>
